STARTFONT 2.1
COMMENT
COMMENT Converted from OpenType font "BeVietnam-Regular.ttf" by "otf2bdf 3.0".
COMMENT
FONT -FreeType-Be Vietnam-Medium-R-Normal--33-240-100-100-P-156-ISO10646-1
SIZE 24 100 100
FONTBOUNDINGBOX 51 45 -12 -8
STARTPROPERTIES 19
FOUNDRY "FreeType"
FAMILY_NAME "Be Vietnam"
WEIGHT_NAME "Medium"
SLANT "R"
SETWIDTH_NAME "Normal"
ADD_STYLE_NAME ""
PIXEL_SIZE 33
POINT_SIZE 240
RESOLUTION_X 100
RESOLUTION_Y 100
SPACING "P"
AVERAGE_WIDTH 156
CHARSET_REGISTRY "ISO10646"
CHARSET_ENCODING "1"
FONT_ASCENT 39
FONT_DESCENT 8
COPYRIGHT "Copyright 2019 The Bevietnam Project Authors (https://github.com/bettergui/beVietnam)"
_OTF_FONTFILE "BeVietnam-Regular.ttf"
_OTF_PSNAME "BeVietnam-Regular"
ENDPROPERTIES
CHARS 445
STARTCHAR 000D
ENCODING 13
SWIDTH 600 0
DWIDTH 20 0
BBX 0 0 0 0
BITMAP
ENDCHAR
STARTCHAR 0020
ENCODING 32
SWIDTH 210 0
DWIDTH 7 0
BBX 0 0 0 0
BITMAP
ENDCHAR
STARTCHAR 0021
ENCODING 33
SWIDTH 240 0
DWIDTH 8 0
BBX 4 25 2 0
BITMAP
F0
F0
F0
F0
70
70
70
70
60
60
60
60
60
60
60
60
60
60
60
00
00
00
F0
F0
70
ENDCHAR
STARTCHAR 0022
ENCODING 34
SWIDTH 510 0
DWIDTH 17 0
BBX 12 8 3 17
BITMAP
2060
40C0
C180
8180
C1C0
F1E0
F1F0
F0E0
ENDCHAR
STARTCHAR 0023
ENCODING 35
SWIDTH 870 0
DWIDTH 29 0
BBX 23 23 3 0
BITMAP
00E070
00E060
00E060
00C060
00C0E0
01C0E0
7FFFFE
7FFFFE
0181C0
0181C0
0381C0
038180
030180
030380
070380
FFFFFC
FFFFFC
060700
060700
0E0700
0E0600
0E0600
0C0E00
ENDCHAR
STARTCHAR 0024
ENCODING 36
SWIDTH 540 0
DWIDTH 18 0
BBX 16 28 2 -3
BITMAP
0100
0100
0FE0
3FF8
7D7C
711C
E10E
E10E
E10E
E100
F100
7900
3FC0
1FF8
01FC
011E
010E
0107
E107
E107
E10E
710E
7D3C
3FF8
0FF0
0100
0100
0100
ENDCHAR
STARTCHAR 0025
ENCODING 37
SWIDTH 810 0
DWIDTH 27 0
BBX 25 24 1 0
BITMAP
08000000
7F007000
63006000
E180E000
C180C000
C181C000
C1818000
63838000
7F070000
3E070000
000E0000
000C0000
001C0000
00180000
00380000
00303F00
00707380
00606180
00E06180
00C06180
01C06180
01806180
03807380
03003F00
ENDCHAR
STARTCHAR 0026
ENCODING 38
SWIDTH 630 0
DWIDTH 21 0
BBX 20 24 2 0
BITMAP
01E000
07FC00
0FFE00
0E0E00
1C0F00
1C0700
1C0700
1C0000
0E0000
0E0000
070000
038000
1FC1C0
3FE380
70F700
E07F00
E03E00
E01E00
E01E00
E01F00
F03B80
78F3C0
3FE1E0
1FC0F0
ENDCHAR
STARTCHAR 0027
ENCODING 39
SWIDTH 300 0
DWIDTH 10 0
BBX 4 8 3 19
BITMAP
F0
F0
F0
30
30
30
60
C0
ENDCHAR
STARTCHAR 0028
ENCODING 40
SWIDTH 450 0
DWIDTH 15 0
BBX 9 33 4 -7
BITMAP
0180
0700
0E00
0C00
1C00
3800
3800
7000
7000
7000
E000
E000
E000
E000
E000
E000
E000
E000
E000
E000
E000
E000
E000
7000
7000
3000
3800
1800
1C00
0C00
0600
0300
0100
ENDCHAR
STARTCHAR 0029
ENCODING 41
SWIDTH 480 0
DWIDTH 16 0
BBX 9 33 4 -7
BITMAP
C000
6000
7000
3800
1800
1C00
0C00
0E00
0E00
0700
0700
0700
0700
0300
0380
0380
0380
0380
0380
0700
0700
0700
0700
0700
0E00
0E00
0C00
1C00
3800
3000
7000
E000
8000
ENDCHAR
STARTCHAR 002A
ENCODING 42
SWIDTH 480 0
DWIDTH 16 0
BBX 11 12 3 14
BITMAP
0E00
0C00
0400
C460
F5E0
3F80
0E00
3F80
F5E0
C460
0400
0C00
ENDCHAR
STARTCHAR 002B
ENCODING 43
SWIDTH 570 0
DWIDTH 19 0
BBX 13 13 3 4
BITMAP
0700
0700
0700
0700
0700
FFF8
FFF8
FFF8
0700
0700
0700
0700
0700
ENDCHAR
STARTCHAR 002C
ENCODING 44
SWIDTH 270 0
DWIDTH 9 0
BBX 5 8 2 -5
BITMAP
78
F8
78
18
18
18
30
60
ENDCHAR
STARTCHAR 002D
ENCODING 45
SWIDTH 600 0
DWIDTH 20 0
BBX 12 3 4 9
BITMAP
FFF0
FFF0
FFF0
ENDCHAR
STARTCHAR 002E
ENCODING 46
SWIDTH 270 0
DWIDTH 9 0
BBX 3 4 3 0
BITMAP
40
E0
E0
E0
ENDCHAR
STARTCHAR 002F
ENCODING 47
SWIDTH 510 0
DWIDTH 17 0
BBX 14 32 2 -5
BITMAP
001C
001C
0038
0038
0038
0070
0070
0070
00E0
00E0
00C0
01C0
01C0
0180
0380
0380
0700
0700
0700
0E00
0E00
0C00
1C00
1C00
1800
3800
3800
7000
7000
7000
E000
E000
ENDCHAR
STARTCHAR 0030
ENCODING 48
SWIDTH 600 0
DWIDTH 20 0
BBX 16 24 2 0
BITMAP
03E0
1FF8
3FFC
781E
700E
F00F
E007
E007
E007
E007
E007
E007
E007
E007
E007
E007
E007
E007
E007
700E
781E
3C3C
1FF8
0FF0
ENDCHAR
STARTCHAR 0031
ENCODING 49
SWIDTH 480 0
DWIDTH 16 0
BBX 12 23 3 0
BITMAP
0F00
1F00
3F00
7700
E700
C700
8700
0700
0700
0700
0700
0700
0700
0700
0700
0700
0700
0700
0700
0700
FFF0
FFF0
FFF0
ENDCHAR
STARTCHAR 0032
ENCODING 50
SWIDTH 570 0
DWIDTH 19 0
BBX 16 24 2 0
BITMAP
03E0
1FF8
3FFC
381E
700E
700E
6006
6007
0006
000E
000E
001C
003C
0078
00F0
01E0
03C0
0780
0E00
1C00
7800
FFFF
FFFF
FFFF
ENDCHAR
STARTCHAR 0033
ENCODING 51
SWIDTH 570 0
DWIDTH 19 0
BBX 16 24 2 0
BITMAP
07E0
1FF8
3FFC
781E
700E
7006
0007
0007
000E
000E
003C
03F8
03F8
003C
000E
0007
0007
0007
E007
F00F
700E
3E7E
3FFC
0FF0
ENDCHAR
STARTCHAR 0034
ENCODING 52
SWIDTH 600 0
DWIDTH 20 0
BBX 16 23 2 0
BITMAP
0078
00F8
00F8
01F8
03B8
03B8
0738
0E38
0E38
1C38
3838
3838
7038
E038
E038
FFFF
FFFF
0038
0038
0038
0038
0038
0038
ENDCHAR
STARTCHAR 0035
ENCODING 53
SWIDTH 600 0
DWIDTH 20 0
BBX 15 23 3 0
BITMAP
FFFC
FFFC
E000
E000
E000
E000
E000
E3C0
EFF0
DEF8
F01C
E00E
000E
000E
000E
000E
000E
E00E
E01E
F01C
7EFC
3FF0
0FE0
ENDCHAR
STARTCHAR 0036
ENCODING 54
SWIDTH 570 0
DWIDTH 19 0
BBX 16 23 2 0
BITMAP
01C0
0380
0380
0700
0E00
0E00
1C00
3800
3BE0
7FF8
7E7C
F01E
F00E
E007
E007
E007
E007
E007
E00E
701E
3C3C
1FF8
0FF0
ENDCHAR
STARTCHAR 0037
ENCODING 55
SWIDTH 510 0
DWIDTH 17 0
BBX 15 23 1 0
BITMAP
FFFE
FFFE
000E
001C
001C
0018
0038
0038
0070
0070
00E0
00E0
01C0
01C0
03C0
0380
0380
0700
0700
0E00
0E00
1C00
1C00
ENDCHAR
STARTCHAR 0038
ENCODING 56
SWIDTH 600 0
DWIDTH 20 0
BBX 17 24 2 0
BITMAP
03E000
0FF800
3FFC00
381E00
700E00
700700
700700
700700
700600
380E00
3C3C00
0FF800
1FFC00
380E00
700700
E00700
E00300
E00380
E00380
E00700
700F00
7C1E00
3FFC00
0FF800
ENDCHAR
STARTCHAR 0039
ENCODING 57
SWIDTH 570 0
DWIDTH 19 0
BBX 16 24 2 0
BITMAP
07C0
1FF0
3FFC
781C
700E
E00E
E007
E007
E007
E007
E00F
700E
781E
3FFE
1FEC
031C
0038
0078
0070
00E0
01E0
01C0
0380
0780
ENDCHAR
STARTCHAR 003A
ENCODING 58
SWIDTH 270 0
DWIDTH 9 0
BBX 4 17 2 0
BITMAP
70
F0
70
00
00
00
00
00
00
00
00
00
00
20
70
F0
70
ENDCHAR
STARTCHAR 003B
ENCODING 59
SWIDTH 300 0
DWIDTH 10 0
BBX 4 22 3 -5
BITMAP
F0
F0
F0
00
00
00
00
00
00
00
00
00
00
00
F0
F0
F0
30
10
30
20
40
ENDCHAR
STARTCHAR 003C
ENCODING 60
SWIDTH 540 0
DWIDTH 18 0
BBX 13 14 3 4
BITMAP
0018
0078
01F0
07C0
1F00
7C00
F000
F000
7C00
1F00
07C0
01F0
0078
0038
ENDCHAR
STARTCHAR 003D
ENCODING 61
SWIDTH 690 0
DWIDTH 23 0
BBX 16 9 4 6
BITMAP
FFFF
FFFF
0000
0000
0000
0000
0000
FFFF
FFFF
ENDCHAR
STARTCHAR 003E
ENCODING 62
SWIDTH 540 0
DWIDTH 18 0
BBX 13 14 3 4
BITMAP
C000
F000
7C00
1F00
07C0
01E0
0078
0078
01F0
07C0
1F00
7C00
F000
E000
ENDCHAR
STARTCHAR 003F
ENCODING 63
SWIDTH 570 0
DWIDTH 19 0
BBX 15 24 2 0
BITMAP
07E0
1FF8
3FFC
781E
700E
E00E
E00E
E00E
000E
000E
001C
0038
0070
00E0
01C0
03C0
0380
0380
0000
0000
0000
0380
0380
0380
ENDCHAR
STARTCHAR 0040
ENCODING 64
SWIDTH 990 0
DWIDTH 33 0
BBX 29 30 2 -6
BITMAP
000FC000
007FF800
01FFFE00
07C00F80
0F0003C0
1C0001E0
180000E0
38000070
301F7030
703FF038
6070F018
60E07018
E0C07018
E0C07018
E0C03018
E0C03018
E0C07018
E0E07038
60E0F830
6079DC70
703F8FC0
301E0700
38000000
1C000000
1E000000
0F000000
03E00000
01FFFF00
007FFF00
0003FF00
ENDCHAR
STARTCHAR 0041
ENCODING 65
SWIDTH 660 0
DWIDTH 22 0
BBX 20 23 1 0
BITMAP
007000
00F000
00F800
00F800
01DC00
019C00
038C00
038E00
030E00
070600
070700
060700
0E0380
0E0380
1FFF80
1FFFC0
1801C0
3800C0
3800E0
3000E0
700070
700070
E00070
ENDCHAR
STARTCHAR 0042
ENCODING 66
SWIDTH 600 0
DWIDTH 20 0
BBX 17 23 2 0
BITMAP
FFFC00
FFFE00
E01F00
E00700
E00700
E00300
E00300
E00700
E00700
E01E00
FFF800
FFFE00
E00F00
E00380
E00380
E00180
E00180
E00180
E00380
E00780
E03F00
FFFE00
FFF800
ENDCHAR
STARTCHAR 0043
ENCODING 67
SWIDTH 690 0
DWIDTH 23 0
BBX 20 24 2 0
BITMAP
00F800
07FF00
0FFF80
1E03C0
3C01E0
7800E0
700070
F00070
E00000
E00000
E00000
E00000
E00000
E00000
E00000
E00000
E00000
700070
7000E0
3801E0
3C03C0
1F9F80
0FFF00
03FC00
ENDCHAR
STARTCHAR 0044
ENCODING 68
SWIDTH 660 0
DWIDTH 22 0
BBX 19 23 2 0
BITMAP
FFF800
FFFE00
E01F00
E00780
E003C0
E001C0
E001E0
E000E0
E000E0
E000E0
E000E0
E000E0
E000E0
E000E0
E000E0
E000E0
E001E0
E001C0
E003C0
E00F80
FFFF00
FFFE00
FFF800
ENDCHAR
STARTCHAR 0045
ENCODING 69
SWIDTH 540 0
DWIDTH 18 0
BBX 15 23 2 0
BITMAP
FFFE
FFFE
E000
E000
E000
E000
E000
E000
E000
E000
FFFC
FFFC
E000
E000
E000
E000
E000
E000
E000
E000
FFFE
FFFE
FFFE
ENDCHAR
STARTCHAR 0046
ENCODING 70
SWIDTH 510 0
DWIDTH 17 0
BBX 14 23 2 0
BITMAP
FFFC
FFFC
E000
E000
E000
E000
E000
E000
E000
E000
FFF8
FFF8
E000
E000
E000
E000
E000
E000
E000
E000
E000
E000
E000
ENDCHAR
STARTCHAR 0047
ENCODING 71
SWIDTH 690 0
DWIDTH 23 0
BBX 20 24 2 0
BITMAP
00F800
07FE00
0FFF80
1E07C0
3801C0
7800E0
7000E0
E00070
E00000
E00000
E00000
E00000
E01FF0
E01FF0
E00070
E00070
E00070
700070
7000F0
3800F0
3C03F0
1F0F70
0FFE70
03FC70
ENDCHAR
STARTCHAR 0048
ENCODING 72
SWIDTH 660 0
DWIDTH 22 0
BBX 18 23 2 0
BITMAP
E001C0
E001C0
E001C0
E001C0
E001C0
E001C0
E001C0
E001C0
E001C0
E001C0
FFFFC0
FFFFC0
E001C0
E001C0
E001C0
E001C0
E001C0
E001C0
E001C0
E001C0
E001C0
E001C0
E001C0
ENDCHAR
STARTCHAR 0049
ENCODING 73
SWIDTH 240 0
DWIDTH 8 0
BBX 3 23 3 0
BITMAP
E0
E0
E0
E0
E0
E0
E0
E0
E0
E0
E0
E0
E0
E0
E0
E0
E0
E0
E0
E0
E0
E0
E0
ENDCHAR
STARTCHAR 004A
ENCODING 74
SWIDTH 330 0
DWIDTH 11 0
BBX 7 23 2 0
BITMAP
0E
0E
0E
0E
0E
0E
0E
0E
0E
0E
0E
0E
0E
0E
0E
0E
0E
0E
0E
0E
1C
FC
F8
ENDCHAR
STARTCHAR 004B
ENCODING 75
SWIDTH 600 0
DWIDTH 20 0
BBX 17 23 2 0
BITMAP
E00F00
E01E00
E03C00
E07800
E0F000
E1E000
E1C000
E38000
E70000
EE0000
FF0000
FF0000
FB8000
F1C000
E1E000
E0E000
E07000
E07800
E03C00
E01C00
E00E00
E00F00
E00780
ENDCHAR
STARTCHAR 004C
ENCODING 76
SWIDTH 510 0
DWIDTH 17 0
BBX 14 23 2 0
BITMAP
E000
E000
E000
E000
E000
E000
E000
E000
E000
E000
E000
E000
E000
E000
E000
E000
E000
E000
E000
E000
FFFC
FFFC
FFFC
ENDCHAR
STARTCHAR 004D
ENCODING 77
SWIDTH 810 0
DWIDTH 27 0
BBX 23 23 2 0
BITMAP
F8003E
F8003E
FC003E
FC007E
EE007E
EE00EE
EE00EE
E700EE
E701CE
E381CE
E383CE
E3838E
E1C38E
E1C70E
E1E70E
E0E70E
E0EE0E
E07E0E
E07C0E
E07C0E
E03C0E
E0380E
E0380E
ENDCHAR
STARTCHAR 004E
ENCODING 78
SWIDTH 690 0
DWIDTH 23 0
BBX 19 23 2 0
BITMAP
F000E0
F800E0
FC00E0
FC00E0
FE00E0
EF00E0
E700E0
E780E0
E3C0E0
E1C0E0
E1E0E0
E0F0E0
E070E0
E038E0
E03CE0
E01CE0
E00EE0
E00FE0
E007E0
E003E0
E003E0
E001E0
E000E0
ENDCHAR
STARTCHAR 004F
ENCODING 79
SWIDTH 720 0
DWIDTH 24 0
BBX 21 24 2 0
BITMAP
01F800
07FF00
0FFF80
1E07C0
3C01E0
7800E0
7000F0
F00070
E00070
E00078
E00038
E00038
E00038
E00038
E00038
E00070
E00070
700070
7000E0
7801E0
3C03C0
1FDF80
0FFF00
03FC00
ENDCHAR
STARTCHAR 0050
ENCODING 80
SWIDTH 570 0
DWIDTH 19 0
BBX 17 23 2 0
BITMAP
FFF800
FFFC00
E03E00
E00F00
E00700
E00700
E00300
E00380
E00300
E00700
E00700
E00E00
FFFE00
FFFC00
FFF000
E00000
E00000
E00000
E00000
E00000
E00000
E00000
E00000
ENDCHAR
STARTCHAR 0051
ENCODING 81
SWIDTH 720 0
DWIDTH 24 0
BBX 21 26 2 -2
BITMAP
01F800
07FF00
0FFF80
1E07C0
3C01E0
7800E0
7000F0
F00070
E00070
E00078
E00038
E00038
E00038
E00038
E00038
E07070
E03870
701C70
700CE0
780FE0
3C07C0
1FDF80
0FFF80
03FCC0
0000E0
000070
ENDCHAR
STARTCHAR 0052
ENCODING 82
SWIDTH 600 0
DWIDTH 20 0
BBX 16 23 2 0
BITMAP
FFF8
FFFC
E03E
E00F
E007
E003
E003
E003
E007
E007
E01E
FFFE
FFFC
FFE0
E0E0
E070
E070
E038
E01C
E01C
E00E
E007
E007
ENDCHAR
STARTCHAR 0053
ENCODING 83
SWIDTH 570 0
DWIDTH 19 0
BBX 16 24 2 0
BITMAP
07E0
1FF8
3FFC
781E
700E
E00F
E007
E000
7000
7800
3E00
1FF0
0FFC
007E
000F
0007
E007
E007
E007
F007
780F
3E7E
1FFC
0FF0
ENDCHAR
STARTCHAR 0054
ENCODING 84
SWIDTH 570 0
DWIDTH 19 0
BBX 17 23 1 0
BITMAP
FFFF80
FFFF80
01C000
01C000
01C000
01C000
01C000
01C000
01C000
01C000
01C000
01C000
01C000
01C000
01C000
01C000
01C000
01C000
01C000
01C000
01C000
01C000
01C000
ENDCHAR
STARTCHAR 0055
ENCODING 85
SWIDTH 660 0
DWIDTH 22 0
BBX 19 23 2 0
BITMAP
E000E0
E000E0
E000E0
E000E0
E000E0
E000E0
E000E0
E000E0
E000E0
E000E0
E000E0
E000E0
E000E0
E000E0
E000E0
E001C0
7001C0
7001C0
780380
3C0780
1FBF00
0FFE00
07FC00
ENDCHAR
STARTCHAR 0056
ENCODING 86
SWIDTH 630 0
DWIDTH 21 0
BBX 19 23 1 0
BITMAP
E000E0
E000E0
E000E0
7001C0
7001C0
7001C0
380380
380380
180380
1C0700
1C0700
0E0700
0E0E00
0E0E00
070E00
071C00
071C00
039800
03B800
03B800
01F000
01F000
01F000
ENDCHAR
STARTCHAR 0057
ENCODING 87
SWIDTH 990 0
DWIDTH 33 0
BBX 31 23 1 0
BITMAP
E0038006
E003800E
E007C00E
6007C00E
7007C01C
700EE01C
700EE01C
300E601C
381C7038
381C7038
381C3038
18383830
1C383870
1C383870
1C701C70
0E701C60
0E701CE0
0EE00EE0
06E00EE0
07E00EC0
07C007C0
07C007C0
03C00780
ENDCHAR
STARTCHAR 0058
ENCODING 88
SWIDTH 630 0
DWIDTH 21 0
BBX 18 23 2 0
BITMAP
E001C0
700380
700380
380700
1C0E00
1C0E00
0E1C00
073800
073800
03F000
01F000
01E000
03F000
03F000
073800
0F1C00
0E1C00
1C0E00
3C0F00
380700
700380
F003C0
E001C0
ENDCHAR
STARTCHAR 0059
ENCODING 89
SWIDTH 600 0
DWIDTH 20 0
BBX 17 23 2 0
BITMAP
E00380
E00700
700700
700E00
380E00
381C00
1C1C00
1C3800
0E3800
0E7000
077000
07E000
03E000
03C000
01C000
01C000
01C000
01C000
01C000
01C000
01C000
01C000
01C000
ENDCHAR
STARTCHAR 005A
ENCODING 90
SWIDTH 600 0
DWIDTH 20 0
BBX 16 23 2 0
BITMAP
FFFF
FFFF
0007
000E
001E
003C
0038
0078
00F0
00E0
01C0
03C0
0780
0700
0E00
1E00
3C00
3800
7800
F000
FFFF
FFFF
FFFF
ENDCHAR
STARTCHAR 005B
ENCODING 91
SWIDTH 420 0
DWIDTH 14 0
BBX 9 33 3 -6
BITMAP
FF80
FF80
C000
C000
C000
C000
C000
C000
C000
C000
C000
C000
C000
C000
C000
C000
C000
C000
C000
C000
C000
C000
C000
C000
C000
C000
C000
C000
C000
C000
C000
FF80
FF80
ENDCHAR
STARTCHAR 005C
ENCODING 92
SWIDTH 510 0
DWIDTH 17 0
BBX 14 32 1 -5
BITMAP
E000
E000
6000
7000
7000
3800
3800
3800
1C00
1C00
0C00
0E00
0E00
0600
0700
0700
0380
0380
0380
01C0
01C0
00C0
00E0
00E0
0060
0070
0070
0038
0038
0038
001C
001C
ENDCHAR
STARTCHAR 005D
ENCODING 93
SWIDTH 420 0
DWIDTH 14 0
BBX 10 33 2 -6
BITMAP
FFC0
FFC0
00C0
00C0
00C0
00C0
00C0
00C0
00C0
00C0
00C0
00C0
00C0
00C0
00C0
00C0
00C0
00C0
00C0
00C0
00C0
00C0
00C0
00C0
00C0
00C0
00C0
00C0
00C0
00C0
00C0
FFC0
FFC0
ENDCHAR
STARTCHAR 005E
ENCODING 94
SWIDTH 390 0
DWIDTH 13 0
BBX 12 6 1 19
BITMAP
0F00
1F80
3980
31C0
70E0
E070
ENDCHAR
STARTCHAR 005F
ENCODING 95
SWIDTH 690 0
DWIDTH 23 0
BBX 16 2 4 0
BITMAP
FFFF
FFFF
ENDCHAR
STARTCHAR 0060
ENCODING 96
SWIDTH 240 0
DWIDTH 8 0
BBX 6 6 1 21
BITMAP
E0
70
70
38
18
1C
ENDCHAR
STARTCHAR 0061
ENCODING 97
SWIDTH 600 0
DWIDTH 20 0
BBX 16 18 2 0
BITMAP
0FC7
1FE7
3FF7
781F
F00F
E00F
E007
E007
E007
E007
E007
E007
E00F
F00F
701F
7E77
3FE7
0FC7
ENDCHAR
STARTCHAR 0062
ENCODING 98
SWIDTH 600 0
DWIDTH 20 0
BBX 17 25 2 0
BITMAP
E00000
E00000
E00000
E00000
E00000
E00000
E00000
E1F000
E7FC00
EFFE00
EC0F00
F80700
F00780
F00380
F00380
E00380
E00380
F00380
F00380
F00780
F80700
E80F00
EE3E00
E7FC00
E3F800
ENDCHAR
STARTCHAR 0063
ENCODING 99
SWIDTH 570 0
DWIDTH 19 0
BBX 16 18 2 0
BITMAP
07E0
1FF8
3F7C
781E
700E
E006
E007
E000
E000
E000
E000
E007
E006
700E
781E
3E3C
1FF8
0FF0
ENDCHAR
STARTCHAR 0064
ENCODING 100
SWIDTH 600 0
DWIDTH 20 0
BBX 16 25 2 0
BITMAP
0007
0007
0007
0007
0007
0007
0007
0FC7
1FE7
3FF7
781F
F00F
E00F
E007
E007
E007
E007
E007
E007
E007
F00F
701F
7E77
3FF7
0FC7
ENDCHAR
STARTCHAR 0065
ENCODING 101
SWIDTH 570 0
DWIDTH 19 0
BBX 16 18 2 0
BITMAP
07E0
1FF8
3C7C
701C
700E
E00E
E006
E007
FFFF
FFFF
E000
E000
E000
700E
701E
3C3C
1FF8
0FE0
ENDCHAR
STARTCHAR 0066
ENCODING 102
SWIDTH 360 0
DWIDTH 12 0
BBX 9 25 2 0
BITMAP
0700
1F80
3F80
3800
3800
3800
3800
FF80
FF80
FF80
3800
3800
3800
3800
3800
3800
3800
3800
3800
3800
3800
3800
3800
3800
3800
ENDCHAR
STARTCHAR 0067
ENCODING 103
SWIDTH 600 0
DWIDTH 20 0
BBX 16 25 2 -7
BITMAP
0FC7
1FE7
3F77
781F
F00F
E007
E007
E007
E007
E007
E007
E007
F00F
700F
781F
3FF7
1FE7
0387
0007
0007
000F
001E
07FC
07F8
07F0
ENDCHAR
STARTCHAR 0068
ENCODING 104
SWIDTH 600 0
DWIDTH 20 0
BBX 16 25 2 0
BITMAP
E000
E000
E000
E000
E000
E000
E000
E1F0
E7FC
EFFE
E81E
F00F
F007
E007
E007
E007
E007
E007
E007
E007
E007
E007
E007
E007
E007
ENDCHAR
STARTCHAR 0069
ENCODING 105
SWIDTH 240 0
DWIDTH 8 0
BBX 4 24 2 1
BITMAP
F0
F0
70
00
00
00
70
70
70
70
70
70
70
70
70
70
70
70
70
70
70
70
70
70
ENDCHAR
STARTCHAR 006A
ENCODING 106
SWIDTH 240 0
DWIDTH 8 0
BBX 7 32 -1 -7
BITMAP
04
0E
0E
0E
00
00
00
0E
0E
0E
0E
0E
0E
0E
0E
0E
0E
0E
0E
0E
0E
0E
0E
0E
0E
0E
0E
0E
0E
1E
FC
F8
ENDCHAR
STARTCHAR 006B
ENCODING 107
SWIDTH 510 0
DWIDTH 17 0
BBX 13 25 3 0
BITMAP
E000
E000
E000
E000
E000
E000
E000
E078
E0F0
E1E0
E3C0
E780
EF00
FE00
FC00
F800
FC00
FE00
EE00
E700
E380
E1C0
E0E0
E0F0
E070
ENDCHAR
STARTCHAR 006C
ENCODING 108
SWIDTH 300 0
DWIDTH 10 0
BBX 6 25 3 0
BITMAP
E0
E0
E0
E0
E0
E0
E0
E0
E0
E0
E0
E0
E0
E0
E0
E0
E0
E0
E0
E0
E0
E0
E0
FC
7C
ENDCHAR
STARTCHAR 006D
ENCODING 109
SWIDTH 930 0
DWIDTH 31 0
BBX 28 18 2 0
BITMAP
E1F03F00
E7F87F80
EFFCFFC0
E81F81E0
F00F00E0
F00F00E0
E0070070
E0070070
E0070070
E0070070
E0070070
E0070070
E0070070
E0070070
E0070070
E0070070
E0070070
E0070070
ENDCHAR
STARTCHAR 006E
ENCODING 110
SWIDTH 600 0
DWIDTH 20 0
BBX 16 18 2 0
BITMAP
E1F0
E7FC
EFFE
E81E
F00F
F007
E007
E007
E007
E007
E007
E007
E007
E007
E007
E007
E007
E007
ENDCHAR
STARTCHAR 006F
ENCODING 111
SWIDTH 570 0
DWIDTH 19 0
BBX 16 18 2 0
BITMAP
07E0
1FF8
3EFC
781E
700E
E007
E007
E007
E007
E007
E007
E007
E007
700E
781E
3E3C
1FF8
0FE0
ENDCHAR
STARTCHAR 0070
ENCODING 112
SWIDTH 600 0
DWIDTH 20 0
BBX 17 25 2 -7
BITMAP
E1F000
E7FC00
EFFE00
EC0F00
F80700
F00780
F00380
F00380
E00380
E00380
F00380
F00380
F00780
F80700
E80F00
EE3E00
E7FC00
E3F800
E00000
E00000
E00000
E00000
E00000
E00000
E00000
ENDCHAR
STARTCHAR 0071
ENCODING 113
SWIDTH 600 0
DWIDTH 20 0
BBX 16 25 2 -7
BITMAP
0FC7
1FE7
3FF7
781F
700F
E007
E007
E007
E007
E007
E007
E007
E007
F00F
781F
3E77
3FF7
0FC7
0007
0007
0007
0007
0007
0007
0007
ENDCHAR
STARTCHAR 0072
ENCODING 114
SWIDTH 330 0
DWIDTH 11 0
BBX 9 18 2 0
BITMAP
E180
E780
EF80
FC00
F000
F000
E000
E000
E000
E000
E000
E000
E000
E000
E000
E000
E000
E000
ENDCHAR
STARTCHAR 0073
ENCODING 115
SWIDTH 480 0
DWIDTH 16 0
BBX 13 18 2 0
BITMAP
1F80
3FE0
70F0
E070
E038
E000
E000
7800
3FC0
1FF0
00F0
0038
C038
E038
E038
78F0
7FF0
1FC0
ENDCHAR
STARTCHAR 0074
ENCODING 116
SWIDTH 390 0
DWIDTH 13 0
BBX 10 23 1 0
BITMAP
1C00
1C00
1C00
1C00
1C00
FFC0
FFC0
FFC0
1C00
1C00
1C00
1C00
1C00
1C00
1C00
1C00
1C00
1C00
1C00
1C00
1E00
0FC0
07C0
ENDCHAR
STARTCHAR 0075
ENCODING 117
SWIDTH 600 0
DWIDTH 20 0
BBX 16 18 2 0
BITMAP
E007
E007
E007
E007
E007
E007
E007
E007
E007
E007
E007
6007
7007
700F
781F
3E77
3FE7
0FC7
ENDCHAR
STARTCHAR 0076
ENCODING 118
SWIDTH 540 0
DWIDTH 18 0
BBX 16 18 1 0
BITMAP
E003
E007
7007
700E
300E
380E
381C
181C
1C18
1C38
0C38
0E30
0E70
0770
07E0
03E0
03E0
03C0
ENDCHAR
STARTCHAR 0077
ENCODING 119
SWIDTH 810 0
DWIDTH 27 0
BBX 25 18 1 0
BITMAP
E01C0380
E01C0380
601E0380
703E0300
703E0700
70370700
30770700
38770600
38730E00
18638E00
1CE38C00
1CE19C00
1CC1DC00
0DC1DC00
0FC0D800
0F80F800
0780F800
0780F000
ENDCHAR
STARTCHAR 0078
ENCODING 120
SWIDTH 540 0
DWIDTH 18 0
BBX 16 18 1 0
BITMAP
E00F
700E
781C
381C
1C38
1E70
0E70
07E0
07C0
03C0
07E0
0FE0
0E70
1C38
3C38
381C
701E
F00E
ENDCHAR
STARTCHAR 0079
ENCODING 121
SWIDTH 510 0
DWIDTH 17 0
BBX 16 25 1 -7
BITMAP
E007
E007
700E
700E
300E
381C
381C
1C38
1C38
1C30
0E70
0E70
0660
07E0
07C0
03C0
03C0
0380
0380
0700
0700
0F00
7E00
7C00
7000
ENDCHAR
STARTCHAR 007A
ENCODING 122
SWIDTH 480 0
DWIDTH 16 0
BBX 13 18 2 0
BITMAP
FFF8
FFF8
FFF8
0078
0070
00E0
01C0
0380
0780
0700
0E00
1C00
3800
7800
7000
E000
FFF8
FFF8
ENDCHAR
STARTCHAR 007B
ENCODING 123
SWIDTH 450 0
DWIDTH 15 0
BBX 10 35 3 -7
BITMAP
03C0
0FC0
0E00
1C00
1C00
1C00
1C00
1C00
1C00
1C00
1C00
1C00
1C00
1C00
1C00
1800
1800
F000
7800
1800
1C00
1C00
1C00
1C00
1C00
1C00
1C00
1C00
1C00
1C00
1C00
1C00
1C00
0FC0
07C0
ENDCHAR
STARTCHAR 007C
ENCODING 124
SWIDTH 270 0
DWIDTH 9 0
BBX 2 40 4 -8
BITMAP
C0
C0
C0
C0
C0
C0
C0
C0
C0
C0
C0
C0
C0
C0
C0
C0
C0
C0
C0
C0
C0
C0
C0
C0
C0
C0
C0
C0
C0
C0
C0
C0
C0
C0
C0
C0
C0
C0
C0
C0
ENDCHAR
STARTCHAR 007D
ENCODING 125
SWIDTH 450 0
DWIDTH 15 0
BBX 10 35 4 -7
BITMAP
F800
FC00
0E00
0600
0600
0600
0600
0600
0600
0600
0600
0600
0600
0600
0600
0600
0700
03C0
07C0
0600
0600
0600
0600
0600
0600
0600
0600
0600
0600
0600
0600
0600
0E00
FE00
FC00
ENDCHAR
STARTCHAR 007E
ENCODING 126
SWIDTH 540 0
DWIDTH 18 0
BBX 13 4 3 11
BITMAP
1818
7E30
7FF0
C1E0
ENDCHAR
STARTCHAR 00A0
ENCODING 160
SWIDTH 210 0
DWIDTH 7 0
BBX 0 0 0 0
BITMAP
ENDCHAR
STARTCHAR 00A1
ENCODING 161
SWIDTH 210 0
DWIDTH 7 0
BBX 4 25 2 -8
BITMAP
60
F0
F0
60
00
00
60
60
60
60
60
60
60
60
60
60
60
60
70
70
70
F0
F0
F0
F0
ENDCHAR
STARTCHAR 00A2
ENCODING 162
SWIDTH 600 0
DWIDTH 20 0
BBX 16 22 2 -2
BITMAP
0100
0100
07E0
1FF8
3F7C
791E
710E
E106
E107
E100
E100
E100
E100
E107
E106
710E
791E
3D3C
1FF8
0FF0
0100
0100
ENDCHAR
STARTCHAR 00A3
ENCODING 163
SWIDTH 570 0
DWIDTH 19 0
BBX 17 24 1 0
BITMAP
03F000
0FFC00
1FFE00
3C0F00
380700
380700
780700
780780
380000
3C0000
1C0000
1E0000
0E0000
7FF800
7FF800
070000
070000
070000
070000
060000
0C0000
FFFF80
FFFF80
FFFF80
ENDCHAR
STARTCHAR 00A4
ENCODING 164
SWIDTH 570 0
DWIDTH 19 0
BBX 15 16 2 4
BITMAP
4004
E7CE
7FFC
3C78
301C
700C
600E
6006
6006
600E
600E
701C
3C38
7FFC
EFEE
4004
ENDCHAR
STARTCHAR 00A5
ENCODING 165
SWIDTH 600 0
DWIDTH 20 0
BBX 17 23 2 0
BITMAP
E00380
E00700
700700
700E00
380E00
381C00
1C1C00
1C3800
0E3800
0E7000
077000
07E000
03E000
3FFC00
3FFC00
01C000
01C000
3FFC00
3FFC00
01C000
01C000
01C000
01C000
ENDCHAR
STARTCHAR 00A6
ENCODING 166
SWIDTH 270 0
DWIDTH 9 0
BBX 2 40 4 -8
BITMAP
C0
C0
C0
C0
C0
C0
C0
C0
C0
C0
C0
C0
C0
C0
C0
C0
C0
C0
00
00
00
00
00
C0
C0
C0
C0
C0
C0
C0
C0
C0
C0
C0
C0
C0
C0
C0
C0
C0
ENDCHAR
STARTCHAR 00A7
ENCODING 167
SWIDTH 540 0
DWIDTH 18 0
BBX 15 24 2 0
BITMAP
0780
3FF0
7CF8
7038
601C
7000
7000
3F00
3FF0
F3F8
E03C
E00E
E00E
F00E
7E1C
3FF8
07F8
0038
001C
E01C
701C
7878
3FF0
0FE0
ENDCHAR
STARTCHAR 00A8
ENCODING 168
SWIDTH 360 0
DWIDTH 12 0
BBX 10 4 1 21
BITMAP
4080
F1C0
F1C0
61C0
ENDCHAR
STARTCHAR 00A9
ENCODING 169
SWIDTH 810 0
DWIDTH 27 0
BBX 25 24 1 0
BITMAP
003F0000
01FFC000
07C1F000
0E003800
1C001C00
383E0E00
307F8600
71C1C300
6180E300
63006300
63000300
C3000100
C3000180
E3000300
63006300
63806300
61C0C300
30FF8600
307F0600
18000C00
1C001C00
0F007800
03FFE000
00FF8000
ENDCHAR
STARTCHAR 00AA
ENCODING 170
SWIDTH 150 0
DWIDTH 5 0
BBX 5 5 0 13
BITMAP
78
D8
98
D8
78
ENDCHAR
STARTCHAR 00AB
ENCODING 171
SWIDTH 630 0
DWIDTH 21 0
BBX 19 14 1 4
BITMAP
01C0E0
0381C0
070380
0E0700
1C0E00
381C00
703800
E07000
703800
381C00
1C0E00
0E0700
070380
0381C0
ENDCHAR
STARTCHAR 00AC
ENCODING 172
SWIDTH 630 0
DWIDTH 21 0
BBX 16 9 3 9
BITMAP
FFFF
FFFF
FFFF
0003
0003
0003
0003
0003
0003
ENDCHAR
STARTCHAR 00AD
ENCODING 173
SWIDTH 600 0
DWIDTH 20 0
BBX 12 3 4 9
BITMAP
FFF0
FFF0
FFF0
ENDCHAR
STARTCHAR 00AE
ENCODING 174
SWIDTH 330 0
DWIDTH 11 0
BBX 9 8 1 15
BITMAP
3E00
4100
5C80
D480
5C80
5580
6100
1E00
ENDCHAR
STARTCHAR 00AF
ENCODING 175
SWIDTH 360 0
DWIDTH 12 0
BBX 10 2 1 21
BITMAP
FFC0
FFC0
ENDCHAR
STARTCHAR 00B0
ENCODING 176
SWIDTH 300 0
DWIDTH 10 0
BBX 6 7 2 22
BITMAP
30
FC
C4
84
CC
78
30
ENDCHAR
STARTCHAR 00B1
ENCODING 177
SWIDTH 600 0
DWIDTH 20 0
BBX 13 18 4 0
BITMAP
0600
0600
0600
0600
0600
FFF8
FFF8
FFF8
0600
0600
0600
0600
0600
0000
0000
0000
FFF8
FFF8
ENDCHAR
STARTCHAR 00B2
ENCODING 178
SWIDTH 300 0
DWIDTH 10 0
BBX 8 12 1 13
BITMAP
7E
67
C3
C3
03
06
0E
1C
38
70
E0
FF
ENDCHAR
STARTCHAR 00B3
ENCODING 179
SWIDTH 300 0
DWIDTH 10 0
BBX 9 13 1 12
BITMAP
7E00
6700
C300
0100
0300
1E00
1E00
0300
0180
C180
E300
7E00
0800
ENDCHAR
STARTCHAR 00B4
ENCODING 180
SWIDTH 240 0
DWIDTH 8 0
BBX 6 6 1 21
BITMAP
1C
1C
38
30
70
E0
ENDCHAR
STARTCHAR 00B5
ENCODING 181
SWIDTH 630 0
DWIDTH 21 0
BBX 18 25 2 -7
BITMAP
E00E00
E00E00
E00E00
E00E00
E00E00
E00E00
E00E00
E00E00
E00E00
E00E00
E00E00
E01E00
E01E00
F01E00
F03E00
F8EE00
FFCFC0
EF87C0
E00000
E00000
E00000
E00000
E00000
E00000
E00000
ENDCHAR
STARTCHAR 00B6
ENCODING 182
SWIDTH 510 0
DWIDTH 17 0
BBX 14 23 1 0
BITMAP
1FFC
7FFC
7FC4
FFC4
FFC4
FFC4
FFC4
FFC4
FFC4
7FC4
3FC4
07C4
00C4
00C4
00C4
00C4
00C4
00C4
00C4
00C4
00C4
00C4
00C4
ENDCHAR
STARTCHAR 00B7
ENCODING 183
SWIDTH 270 0
DWIDTH 9 0
BBX 4 4 3 10
BITMAP
E0
F0
E0
60
ENDCHAR
STARTCHAR 00B8
ENCODING 184
SWIDTH 240 0
DWIDTH 8 0
BBX 6 8 1 -8
BITMAP
60
40
F8
1C
04
0C
DC
F8
ENDCHAR
STARTCHAR 00B9
ENCODING 185
SWIDTH 240 0
DWIDTH 8 0
BBX 7 12 1 13
BITMAP
30
F0
D0
90
10
10
10
10
10
10
FE
FE
ENDCHAR
STARTCHAR 00BA
ENCODING 186
SWIDTH 150 0
DWIDTH 5 0
BBX 5 5 0 13
BITMAP
30
58
C8
48
70
ENDCHAR
STARTCHAR 00BB
ENCODING 187
SWIDTH 630 0
DWIDTH 21 0
BBX 19 14 1 4
BITMAP
E07000
703800
381C00
1C0E00
0E0700
070380
0381C0
01C0E0
0381C0
070380
0E0700
1C0E00
381C00
703800
ENDCHAR
STARTCHAR 00BC
ENCODING 188
SWIDTH 810 0
DWIDTH 27 0
BBX 25 23 1 0
BITMAP
38003800
78007000
D8006000
9800E000
1800C000
1801C000
18038000
18030000
18070000
FE060000
FE0E0000
001C0E00
00180E00
00381E00
00301600
00703600
00E06600
00C04600
01C0C600
0180FF80
03800600
07000600
06000600
ENDCHAR
STARTCHAR 00BD
ENCODING 189
SWIDTH 840 0
DWIDTH 28 0
BBX 26 23 1 0
BITMAP
38001800
78003800
D8007000
98007000
1800E000
1800C000
1801C000
18038000
18038000
FE070000
FE060000
000E0F00
001C1F80
001C3180
003830C0
00300180
00700180
00E00300
00E00600
01C00C00
01801800
03803FC0
07003FC0
ENDCHAR
STARTCHAR 00BE
ENCODING 190
SWIDTH 840 0
DWIDTH 28 0
BBX 26 23 1 0
BITMAP
3F001C00
77003800
63803000
03807000
0700E000
0E00E000
0701C000
01818000
C1838000
63030000
7F070000
1C0E0300
000C0700
001C0F00
00180B00
00381B00
00703300
00602300
00E06300
00C07FC0
01C00300
03800300
03000300
ENDCHAR
STARTCHAR 00BF
ENCODING 191
SWIDTH 570 0
DWIDTH 19 0
BBX 15 24 2 -8
BITMAP
0180
03C0
03C0
0180
0000
0000
0000
0380
0380
0780
0F00
1E00
3C00
7800
7000
E000
E000
E00E
E00E
E00E
701E
7EFC
3FF8
0FE0
ENDCHAR
STARTCHAR 00C0
ENCODING 192
SWIDTH 660 0
DWIDTH 22 0
BBX 20 32 1 0
BITMAP
070000
038000
018000
01C000
00C000
006000
000000
000000
000000
007000
00F000
00F800
00F800
01DC00
019C00
038C00
038E00
030E00
070600
070700
060700
0E0380
0E0380
1FFF80
1FFFC0
1801C0
3800C0
3800E0
3000E0
700070
700070
E00070
ENDCHAR
STARTCHAR 00C1
ENCODING 193
SWIDTH 660 0
DWIDTH 22 0
BBX 20 32 1 0
BITMAP
000E00
000E00
001C00
001800
003800
003000
000000
000000
000000
007000
00F000
00F800
00F800
01DC00
019C00
038C00
038E00
030E00
070600
070700
060700
0E0380
0E0380
1FFF80
1FFFC0
1801C0
3800C0
3800E0
3000E0
700070
700070
E00070
ENDCHAR
STARTCHAR 00C2
ENCODING 194
SWIDTH 660 0
DWIDTH 22 0
BBX 20 30 1 0
BITMAP
00F000
01F800
039C00
030E00
040000
000000
000000
007000
00F000
00F800
00F800
01DC00
019C00
038C00
038E00
030E00
070600
070700
060700
0E0380
0E0380
1FFF80
1FFFC0
1801C0
3800C0
3800E0
3000E0
700070
700070
E00070
ENDCHAR
STARTCHAR 00C3
ENCODING 195
SWIDTH 660 0
DWIDTH 22 0
BBX 20 30 1 0
BITMAP
01C600
03F600
023C00
020000
000000
000000
000000
007000
00F000
00F800
00F800
01DC00
019C00
038C00
038E00
030E00
070600
070700
060700
0E0380
0E0380
1FFF80
1FFFC0
1801C0
3800C0
3800E0
3000E0
700070
700070
E00070
ENDCHAR
STARTCHAR 00C4
ENCODING 196
SWIDTH 660 0
DWIDTH 22 0
BBX 20 30 1 0
BITMAP
038E00
078F00
078E00
000000
000000
000000
000000
007000
00F000
00F800
00F800
01DC00
019C00
038C00
038E00
030E00
070600
070700
060700
0E0380
0E0380
1FFF80
1FFFC0
1801C0
3800C0
3800E0
3000E0
700070
700070
E00070
ENDCHAR
STARTCHAR 00C5
ENCODING 197
SWIDTH 660 0
DWIDTH 22 0
BBX 20 32 1 0
BITMAP
007000
00D800
018800
018800
00F800
007000
000000
000000
000000
007000
00F000
00F800
00F800
01DC00
019C00
038C00
038E00
030E00
070600
070700
060700
0E0380
0E0380
1FFF80
1FFFC0
1801C0
3800C0
3800E0
3000E0
700070
700070
E00070
ENDCHAR
STARTCHAR 00C6
ENCODING 198
SWIDTH 930 0
DWIDTH 31 0
BBX 29 23 1 0
BITMAP
000FFFF8
001FFFF8
001F8000
003B8000
003B8000
00738000
00F38000
00E38000
01E38000
01C38000
03C3FFE0
0383FFE0
07838000
07038000
0FFF8000
0FFF8000
1C038000
1C038000
38038000
38038000
7003FFF8
F003FFF8
E003FFF8
ENDCHAR
STARTCHAR 00C7
ENCODING 199
SWIDTH 690 0
DWIDTH 23 0
BBX 20 32 2 -8
BITMAP
00F800
07FF00
0FFF80
1E03C0
3C01E0
7800E0
700070
F00070
E00000
E00000
E00000
E00000
E00000
E00000
E00000
E00000
E00000
700070
7000E0
3801E0
3C03C0
1F9F80
0FFF00
03FC00
006000
006000
007C00
000E00
000600
000600
007C00
007800
ENDCHAR
STARTCHAR 00C8
ENCODING 200
SWIDTH 540 0
DWIDTH 18 0
BBX 15 32 2 0
BITMAP
3C00
1C00
0E00
0600
0700
0300
0000
0000
0000
FFFE
FFFE
E000
E000
E000
E000
E000
E000
E000
E000
FFFC
FFFC
E000
E000
E000
E000
E000
E000
E000
E000
FFFE
FFFE
FFFE
ENDCHAR
STARTCHAR 00C9
ENCODING 201
SWIDTH 540 0
DWIDTH 18 0
BBX 15 32 2 0
BITMAP
0038
0070
0060
00E0
00C0
0180
0000
0000
0000
FFFE
FFFE
E000
E000
E000
E000
E000
E000
E000
E000
FFFC
FFFC
E000
E000
E000
E000
E000
E000
E000
E000
FFFE
FFFE
FFFE
ENDCHAR
STARTCHAR 00CA
ENCODING 202
SWIDTH 540 0
DWIDTH 18 0
BBX 15 30 2 0
BITMAP
03C0
07E0
0E70
1C30
0008
0000
0000
FFFE
FFFE
E000
E000
E000
E000
E000
E000
E000
E000
FFFC
FFFC
E000
E000
E000
E000
E000
E000
E000
E000
FFFE
FFFE
FFFE
ENDCHAR
STARTCHAR 00CB
ENCODING 203
SWIDTH 540 0
DWIDTH 18 0
BBX 15 30 2 0
BITMAP
1C78
1C78
1C78
0000
0000
0000
0000
FFFE
FFFE
E000
E000
E000
E000
E000
E000
E000
E000
FFFC
FFFC
E000
E000
E000
E000
E000
E000
E000
E000
FFFE
FFFE
FFFE
ENDCHAR
STARTCHAR 00CC
ENCODING 204
SWIDTH 240 0
DWIDTH 8 0
BBX 7 32 -1 0
BITMAP
E0
60
70
38
18
1C
00
00
00
0E
0E
0E
0E
0E
0E
0E
0E
0E
0E
0E
0E
0E
0E
0E
0E
0E
0E
0E
0E
0E
0E
0E
ENDCHAR
STARTCHAR 00CD
ENCODING 205
SWIDTH 240 0
DWIDTH 8 0
BBX 6 32 3 0
BITMAP
1C
1C
38
30
70
E0
00
00
00
E0
E0
E0
E0
E0
E0
E0
E0
E0
E0
E0
E0
E0
E0
E0
E0
E0
E0
E0
E0
E0
E0
E0
ENDCHAR
STARTCHAR 00CE
ENCODING 206
SWIDTH 240 0
DWIDTH 8 0
BBX 10 30 -1 0
BITMAP
1E00
3F00
7380
E1C0
0000
0000
0000
0E00
0E00
0E00
0E00
0E00
0E00
0E00
0E00
0E00
0E00
0E00
0E00
0E00
0E00
0E00
0E00
0E00
0E00
0E00
0E00
0E00
0E00
0E00
ENDCHAR
STARTCHAR 00CF
ENCODING 207
SWIDTH 240 0
DWIDTH 8 0
BBX 10 30 -1 0
BITMAP
E1C0
F3C0
E1C0
0000
0000
0000
0000
0E00
0E00
0E00
0E00
0E00
0E00
0E00
0E00
0E00
0E00
0E00
0E00
0E00
0E00
0E00
0E00
0E00
0E00
0E00
0E00
0E00
0E00
0E00
ENDCHAR
STARTCHAR 00D0
ENCODING 208
SWIDTH 690 0
DWIDTH 23 0
BBX 20 23 2 0
BITMAP
7FFC00
7FFF00
701F80
7003C0
7001E0
7000E0
7000F0
700070
700070
700070
FF8070
FF8070
700070
700070
700070
700070
7000F0
7000E0
7001C0
7007C0
7FFF80
7FFE00
7FF800
ENDCHAR
STARTCHAR 00D1
ENCODING 209
SWIDTH 690 0
DWIDTH 23 0
BBX 19 30 2 0
BITMAP
03C600
07EC00
067C00
060000
000000
000000
000000
F000E0
F800E0
FC00E0
FC00E0
FE00E0
EF00E0
E700E0
E780E0
E3C0E0
E1C0E0
E1E0E0
E0F0E0
E070E0
E038E0
E03CE0
E01CE0
E00EE0
E00FE0
E007E0
E003E0
E003E0
E001E0
E000E0
ENDCHAR
STARTCHAR 00D2
ENCODING 210
SWIDTH 720 0
DWIDTH 24 0
BBX 21 32 2 0
BITMAP
070000
038000
038000
01C000
00C000
00E000
000000
000000
01F800
07FF00
0FFF80
1E07C0
3C01E0
7800E0
7000F0
F00070
E00070
E00078
E00038
E00038
E00038
E00038
E00038
E00070
E00070
700070
7000E0
7801E0
3C03C0
1FDF80
0FFF00
03FC00
ENDCHAR
STARTCHAR 00D3
ENCODING 211
SWIDTH 720 0
DWIDTH 24 0
BBX 21 32 2 0
BITMAP
000E00
000E00
001C00
001800
003800
003000
000000
000000
01F800
07FF00
0FFF80
1E07C0
3C01E0
7800E0
7000F0
F00070
E00070
E00078
E00038
E00038
E00038
E00038
E00038
E00070
E00070
700070
7000E0
7801E0
3C03C0
1FDF80
0FFF00
03FC00
ENDCHAR
STARTCHAR 00D4
ENCODING 212
SWIDTH 720 0
DWIDTH 24 0
BBX 21 30 2 0
BITMAP
00F000
01F800
039C00
030E00
040000
000000
01F800
07FF00
0FFF80
1E07C0
3C01E0
7800E0
7000F0
F00070
E00070
E00078
E00038
E00038
E00038
E00038
E00038
E00070
E00070
700070
7000E0
7801E0
3C03C0
1FDF80
0FFF00
03FC00
ENDCHAR
STARTCHAR 00D5
ENCODING 213
SWIDTH 720 0
DWIDTH 24 0
BBX 21 30 2 0
BITMAP
01C600
03F600
023C00
060000
000000
000000
01F800
07FF00
0FFF80
1E07C0
3C01E0
7800E0
7000F0
F00070
E00070
E00078
E00038
E00038
E00038
E00038
E00038
E00070
E00070
700070
7000E0
7801E0
3C03C0
1FDF80
0FFF00
03FC00
ENDCHAR
STARTCHAR 00D6
ENCODING 214
SWIDTH 720 0
DWIDTH 24 0
BBX 21 30 2 0
BITMAP
078E00
078E00
078E00
000000
000000
000000
01F800
07FF00
0FFF80
1E07C0
3C01E0
7800E0
7000F0
F00070
E00070
E00078
E00038
E00038
E00038
E00038
E00038
E00070
E00070
700070
7000E0
7801E0
3C03C0
1FDF80
0FFF00
03FC00
ENDCHAR
STARTCHAR 00D7
ENCODING 215
SWIDTH 540 0
DWIDTH 18 0
BBX 11 11 4 5
BITMAP
4000
E0C0
F1C0
7B80
3F00
1E00
1F00
3F80
73C0
E1E0
40C0
ENDCHAR
STARTCHAR 00D8
ENCODING 216
SWIDTH 720 0
DWIDTH 24 0
BBX 21 26 2 -1
BITMAP
000070
00F860
07FFE0
0FFFC0
1E07C0
3C03E0
7807E0
7006F0
F00E70
E01C70
E01C38
E03838
E03038
E07038
E0E038
E0C038
E1C078
F38070
730070
7F00F0
3E01E0
3E03C0
1FDF80
3FFF00
3BFE00
700000
ENDCHAR
STARTCHAR 00D9
ENCODING 217
SWIDTH 660 0
DWIDTH 22 0
BBX 19 32 2 0
BITMAP
0E0000
070000
030000
038000
01C000
00C000
000000
000000
000000
E000E0
E000E0
E000E0
E000E0
E000E0
E000E0
E000E0
E000E0
E000E0
E000E0
E000E0
E000E0
E000E0
E000E0
E000E0
E001C0
7001C0
7001C0
780380
3C0780
1FBF00
0FFE00
07FC00
ENDCHAR
STARTCHAR 00DA
ENCODING 218
SWIDTH 660 0
DWIDTH 22 0
BBX 19 32 2 0
BITMAP
000E00
001C00
003800
003800
007000
006000
000000
000000
000000
E000E0
E000E0
E000E0
E000E0
E000E0
E000E0
E000E0
E000E0
E000E0
E000E0
E000E0
E000E0
E000E0
E000E0
E000E0
E001C0
7001C0
7001C0
780380
3C0780
1FBF00
0FFE00
07FC00
ENDCHAR
STARTCHAR 00DB
ENCODING 219
SWIDTH 660 0
DWIDTH 22 0
BBX 19 30 2 0
BITMAP
01E000
03B000
033800
071C00
080200
000000
000000
E000E0
E000E0
E000E0
E000E0
E000E0
E000E0
E000E0
E000E0
E000E0
E000E0
E000E0
E000E0
E000E0
E000E0
E000E0
E001C0
7001C0
7001C0
780380
3C0780
1FBF00
0FFE00
07FC00
ENDCHAR
STARTCHAR 00DC
ENCODING 220
SWIDTH 660 0
DWIDTH 22 0
BBX 19 30 2 0
BITMAP
071C00
0F1E00
071C00
000000
000000
000000
000000
E000E0
E000E0
E000E0
E000E0
E000E0
E000E0
E000E0
E000E0
E000E0
E000E0
E000E0
E000E0
E000E0
E000E0
E000E0
E001C0
7001C0
7001C0
780380
3C0780
1FBF00
0FFE00
07FC00
ENDCHAR
STARTCHAR 00DD
ENCODING 221
SWIDTH 600 0
DWIDTH 20 0
BBX 17 32 2 0
BITMAP
003800
003800
007000
006000
00E000
00C000
000000
000000
000000
E00380
E00700
700700
700E00
380E00
381C00
1C1C00
1C3800
0E3800
0E7000
077000
07E000
03E000
03C000
01C000
01C000
01C000
01C000
01C000
01C000
01C000
01C000
01C000
ENDCHAR
STARTCHAR 00DE
ENCODING 222
SWIDTH 570 0
DWIDTH 19 0
BBX 17 23 2 0
BITMAP
E00000
E00000
E00000
E00000
FFF000
FFFC00
E03E00
E00F00
E00700
E00700
E00300
E00380
E00300
E00700
E00700
E00E00
FFFE00
FFFC00
FFF000
E00000
E00000
E00000
E00000
ENDCHAR
STARTCHAR 00DF
ENCODING 223
SWIDTH 540 0
DWIDTH 18 0
BBX 15 24 2 0
BITMAP
07C0
1FF0
3FF8
781C
701C
700E
600E
E00E
E01C
E01C
E7F8
E7E0
E7F8
E01C
E00C
E00E
E00E
E00E
E00E
E00E
E01C
E07C
E3F8
E3F0
ENDCHAR
STARTCHAR 00E0
ENCODING 224
SWIDTH 600 0
DWIDTH 20 0
BBX 16 26 2 0
BITMAP
1C00
0E00
0600
0700
0300
0180
0000
0000
0FC7
1FE7
3FF7
781F
F00F
E00F
E007
E007
E007
E007
E007
E007
E00F
F00F
701F
7E77
3FE7
0FC7
ENDCHAR
STARTCHAR 00E1
ENCODING 225
SWIDTH 600 0
DWIDTH 20 0
BBX 16 26 2 0
BITMAP
0038
0038
0070
0060
00C0
01C0
0000
0000
0FC7
1FE7
3FF7
781F
F00F
E00F
E007
E007
E007
E007
E007
E007
E00F
F00F
701F
7E77
3FE7
0FC7
ENDCHAR
STARTCHAR 00E2
ENCODING 226
SWIDTH 600 0
DWIDTH 20 0
BBX 16 25 2 0
BITMAP
01C0
03C0
07E0
0E70
1C38
0000
0000
0FC7
1FE7
3FF7
781F
F00F
E00F
E007
E007
E007
E007
E007
E007
E00F
F00F
701F
7E77
3FE7
0FC7
ENDCHAR
STARTCHAR 00E3
ENCODING 227
SWIDTH 600 0
DWIDTH 20 0
BBX 16 24 2 0
BITMAP
0F18
0FF8
18F0
0000
0000
0000
0FC7
1FE7
3FF7
781F
F00F
E00F
E007
E007
E007
E007
E007
E007
E00F
F00F
701F
7E77
3FE7
0FC7
ENDCHAR
STARTCHAR 00E4
ENCODING 228
SWIDTH 600 0
DWIDTH 20 0
BBX 16 25 2 0
BITMAP
0010
1E38
1E38
0C38
0000
0000
0000
0FC7
1FE7
3FF7
781F
F00F
E00F
E007
E007
E007
E007
E007
E007
E00F
F00F
701F
7E77
3FE7
0FC7
ENDCHAR
STARTCHAR 00E5
ENCODING 229
SWIDTH 600 0
DWIDTH 20 0
BBX 16 26 2 0
BITMAP
03C0
0660
0620
0660
03C0
0080
0000
0000
0FC7
1FE7
3FF7
781F
F00F
E00F
E007
E007
E007
E007
E007
E007
E00F
F00F
701F
7E77
3FE7
0FC7
ENDCHAR
STARTCHAR 00E6
ENCODING 230
SWIDTH 930 0
DWIDTH 31 0
BBX 28 18 2 0
BITMAP
0FC07E00
1FF1FF80
7EF3E7C0
703B01C0
E01F00E0
E01E00E0
000E0060
000E0070
0FFFFFF0
7FFFFFF0
F00E0000
E00E0000
E01E0000
E01E00E0
E03F01E0
F073C3C0
7FE1FF80
3F80FE00
ENDCHAR
STARTCHAR 00E7
ENCODING 231
SWIDTH 570 0
DWIDTH 19 0
BBX 16 26 2 -8
BITMAP
07E0
1FF8
3F7C
781E
700E
E006
E007
E000
E000
E000
E000
E007
E006
700E
781E
3E3C
1FF8
0FF0
0180
0100
03E0
0030
0010
0010
01F0
01E0
ENDCHAR
STARTCHAR 00E8
ENCODING 232
SWIDTH 570 0
DWIDTH 19 0
BBX 16 26 2 0
BITMAP
1C00
0C00
0E00
0700
0300
0380
0000
0000
07E0
1FF8
3C7C
701C
700E
E00E
E006
E007
FFFF
FFFF
E000
E000
E000
700E
701E
3C3C
1FF8
0FE0
ENDCHAR
STARTCHAR 00E9
ENCODING 233
SWIDTH 570 0
DWIDTH 19 0
BBX 16 26 2 0
BITMAP
0038
0070
0070
00E0
00C0
01C0
0000
0000
07E0
1FF8
3C7C
701C
700E
E00E
E006
E007
FFFF
FFFF
E000
E000
E000
700E
701E
3C3C
1FF8
0FE0
ENDCHAR
STARTCHAR 00EA
ENCODING 234
SWIDTH 570 0
DWIDTH 19 0
BBX 16 25 2 0
BITMAP
0180
03C0
07E0
0E70
1C38
0000
0000
07E0
1FF8
3C7C
701C
700E
E00E
E006
E007
FFFF
FFFF
E000
E000
E000
700E
701E
3C3C
1FF8
0FE0
ENDCHAR
STARTCHAR 00EB
ENCODING 235
SWIDTH 570 0
DWIDTH 19 0
BBX 16 25 2 0
BITMAP
0810
1C38
1E78
1C38
0000
0000
0000
07E0
1FF8
3C7C
701C
700E
E00E
E006
E007
FFFF
FFFF
E000
E000
E000
700E
701E
3C3C
1FF8
0FE0
ENDCHAR
STARTCHAR 00EC
ENCODING 236
SWIDTH 240 0
DWIDTH 8 0
BBX 7 26 -1 0
BITMAP
E0
70
70
38
18
0C
00
00
0E
0E
0E
0E
0E
0E
0E
0E
0E
0E
0E
0E
0E
0E
0E
0E
0E
0E
ENDCHAR
STARTCHAR 00ED
ENCODING 237
SWIDTH 240 0
DWIDTH 8 0
BBX 6 26 3 0
BITMAP
1C
18
38
70
60
E0
00
00
E0
E0
E0
E0
E0
E0
E0
E0
E0
E0
E0
E0
E0
E0
E0
E0
E0
E0
ENDCHAR
STARTCHAR 00EE
ENCODING 238
SWIDTH 240 0
DWIDTH 8 0
BBX 10 25 -1 0
BITMAP
0E00
1E00
3F00
7380
E1C0
0000
0000
0E00
0E00
0E00
0E00
0E00
0E00
0E00
0E00
0E00
0E00
0E00
0E00
0E00
0E00
0E00
0E00
0E00
0E00
ENDCHAR
STARTCHAR 00EF
ENCODING 239
SWIDTH 240 0
DWIDTH 8 0
BBX 10 25 -1 0
BITMAP
4080
F1C0
F1C0
E1C0
0000
0000
0000
0E00
0E00
0E00
0E00
0E00
0E00
0E00
0E00
0E00
0E00
0E00
0E00
0E00
0E00
0E00
0E00
0E00
0E00
ENDCHAR
STARTCHAR 00F0
ENCODING 240
SWIDTH 600 0
DWIDTH 20 0
BBX 17 26 1 0
BITMAP
03C100
03F700
007E00
007C00
00EE00
008700
000700
000300
07E380
1FF380
3F7B80
380F80
780780
700780
700380
E00380
E00380
E00380
E00380
700380
700700
700700
380E00
3E3E00
1FFC00
07F000
ENDCHAR
STARTCHAR 00F1
ENCODING 241
SWIDTH 600 0
DWIDTH 20 0
BBX 16 24 2 0
BITMAP
0F18
0FF8
18F0
0000
0000
0000
E1F0
E7FC
EFFE
E81E
F00F
F007
E007
E007
E007
E007
E007
E007
E007
E007
E007
E007
E007
E007
ENDCHAR
STARTCHAR 00F2
ENCODING 242
SWIDTH 570 0
DWIDTH 19 0
BBX 16 26 2 0
BITMAP
1C00
0C00
0E00
0700
0300
0380
0000
0000
07E0
1FF8
3EFC
781E
700E
E007
E007
E007
E007
E007
E007
E007
E007
700E
781E
3E3C
1FF8
0FE0
ENDCHAR
STARTCHAR 00F3
ENCODING 243
SWIDTH 570 0
DWIDTH 19 0
BBX 16 26 2 0
BITMAP
0038
0070
0070
00E0
00C0
01C0
0000
0000
07E0
1FF8
3EFC
781E
700E
E007
E007
E007
E007
E007
E007
E007
E007
700E
781E
3E3C
1FF8
0FE0
ENDCHAR
STARTCHAR 00F4
ENCODING 244
SWIDTH 570 0
DWIDTH 19 0
BBX 16 25 2 0
BITMAP
0180
03C0
07E0
0E70
1C38
0000
0000
07E0
1FF8
3EFC
781E
700E
E007
E007
E007
E007
E007
E007
E007
E007
700E
781E
3E3C
1FF8
0FE0
ENDCHAR
STARTCHAR 00F5
ENCODING 245
SWIDTH 570 0
DWIDTH 19 0
BBX 16 24 2 0
BITMAP
0F18
1FF0
18F0
0000
0000
0000
07E0
1FF8
3EFC
781E
700E
E007
E007
E007
E007
E007
E007
E007
E007
700E
781E
3E3C
1FF8
0FE0
ENDCHAR
STARTCHAR 00F6
ENCODING 246
SWIDTH 570 0
DWIDTH 19 0
BBX 16 25 2 0
BITMAP
0810
1C38
1E78
1C38
0000
0000
0000
07E0
1FF8
3EFC
781E
700E
E007
E007
E007
E007
E007
E007
E007
E007
700E
781E
3E3C
1FF8
0FE0
ENDCHAR
STARTCHAR 00F7
ENCODING 247
SWIDTH 600 0
DWIDTH 20 0
BBX 14 15 2 3
BITMAP
0780
0780
0780
0000
0000
0000
FFFC
FFFC
FFFC
0000
0000
0000
0780
0780
0780
ENDCHAR
STARTCHAR 00F8
ENCODING 248
SWIDTH 570 0
DWIDTH 19 0
BBX 16 20 2 -1
BITMAP
000C
07FC
1FF8
3F7C
783E
707E
E067
E0C7
E0C7
E187
E387
E307
E707
E607
7E0E
7C1E
3C7C
1FF8
3FE0
3000
ENDCHAR
STARTCHAR 00F9
ENCODING 249
SWIDTH 600 0
DWIDTH 20 0
BBX 16 26 2 0
BITMAP
1C00
1C00
0E00
0600
0700
0300
0000
0000
E007
E007
E007
E007
E007
E007
E007
E007
E007
E007
E007
6007
7007
700F
781F
3E77
3FE7
0FC7
ENDCHAR
STARTCHAR 00FA
ENCODING 250
SWIDTH 600 0
DWIDTH 20 0
BBX 16 26 2 0
BITMAP
0038
0070
0060
00E0
01C0
0180
0000
0000
E007
E007
E007
E007
E007
E007
E007
E007
E007
E007
E007
6007
7007
700F
781F
3E77
3FE7
0FC7
ENDCHAR
STARTCHAR 00FB
ENCODING 251
SWIDTH 600 0
DWIDTH 20 0
BBX 16 25 2 0
BITMAP
0380
07C0
0EE0
0C70
1C38
0000
0000
E007
E007
E007
E007
E007
E007
E007
E007
E007
E007
E007
6007
7007
700F
781F
3E77
3FE7
0FC7
ENDCHAR
STARTCHAR 00FC
ENCODING 252
SWIDTH 600 0
DWIDTH 20 0
BBX 16 25 2 0
BITMAP
0820
1C78
1C78
1C70
0000
0000
0000
E007
E007
E007
E007
E007
E007
E007
E007
E007
E007
E007
6007
7007
700F
781F
3E77
3FE7
0FC7
ENDCHAR
STARTCHAR 00FD
ENCODING 253
SWIDTH 510 0
DWIDTH 17 0
BBX 16 33 1 -7
BITMAP
0038
0070
0070
00E0
00C0
01C0
0000
0000
E007
E007
700E
700E
300E
381C
381C
1C38
1C38
1C30
0E70
0E70
0660
07E0
07C0
03C0
03C0
0380
0380
0700
0700
0F00
7E00
7C00
7000
ENDCHAR
STARTCHAR 00FE
ENCODING 254
SWIDTH 600 0
DWIDTH 20 0
BBX 17 33 2 -8
BITMAP
E00000
E00000
E00000
E00000
E00000
E00000
E00000
E1F000
E7FC00
EFFE00
EC0F00
F80700
F00780
F00380
F00380
E00380
E00380
F00380
F00380
F00780
F80700
E80F00
EE3E00
E7FC00
E3F800
E00000
E00000
E00000
E00000
E00000
E00000
E00000
E00000
ENDCHAR
STARTCHAR 00FF
ENCODING 255
SWIDTH 510 0
DWIDTH 17 0
BBX 16 32 1 -7
BITMAP
0810
1C38
1E78
1C38
0000
0000
0000
E007
E007
700E
700E
300E
381C
381C
1C38
1C38
1C30
0E70
0E70
0660
07E0
07C0
03C0
03C0
0380
0380
0700
0700
0F00
7E00
7C00
7000
ENDCHAR
STARTCHAR 0100
ENCODING 256
SWIDTH 660 0
DWIDTH 22 0
BBX 20 28 1 0
BITMAP
07FE00
000000
000000
000000
000000
007000
00F000
00F800
00F800
01DC00
019C00
038C00
038E00
030E00
070600
070700
060700
0E0380
0E0380
1FFF80
1FFFC0
1801C0
3800C0
3800E0
3000E0
700070
700070
E00070
ENDCHAR
STARTCHAR 0101
ENCODING 257
SWIDTH 600 0
DWIDTH 20 0
BBX 16 22 2 0
BITMAP
1FF8
0000
0000
0000
0FC7
1FE7
3FF7
781F
F00F
E00F
E007
E007
E007
E007
E007
E007
E00F
F00F
701F
7E77
3FE7
0FC7
ENDCHAR
STARTCHAR 0102
ENCODING 258
SWIDTH 660 0
DWIDTH 22 0
BBX 20 30 1 0
BITMAP
060700
070600
03FC00
00F800
000000
000000
000000
007000
00F000
00F800
00F800
01DC00
019C00
038C00
038E00
030E00
070600
070700
060700
0E0380
0E0380
1FFF80
1FFFC0
1801C0
3800C0
3800E0
3000E0
700070
700070
E00070
ENDCHAR
STARTCHAR 0103
ENCODING 259
SWIDTH 600 0
DWIDTH 20 0
BBX 16 24 2 0
BITMAP
181C
1C38
0FF0
03C0
0000
0000
0FC7
1FE7
3FF7
781F
F00F
E00F
E007
E007
E007
E007
E007
E007
E00F
F00F
701F
7E77
3FE7
0FC7
ENDCHAR
STARTCHAR 0104
ENCODING 260
SWIDTH 660 0
DWIDTH 22 0
BBX 21 28 1 -5
BITMAP
007000
00F000
00F800
00F800
01DC00
019C00
038C00
038E00
030E00
070600
070700
060700
0E0380
0E0380
1FFF80
1FFFC0
1801C0
3800C0
3800E0
3000E0
700070
700070
E00070
000060
0000C0
0000C0
0000E0
000078
ENDCHAR
STARTCHAR 0105
ENCODING 261
SWIDTH 600 0
DWIDTH 20 0
BBX 17 23 2 -5
BITMAP
0FC700
1FE700
3FF700
781F00
F00F00
E00F00
E00700
E00700
E00700
E00700
E00700
E00700
E00F00
F00F00
701F00
7E7700
3FE700
0FC700
000600
000C00
000C00
000E00
000780
ENDCHAR
STARTCHAR 0106
ENCODING 262
SWIDTH 690 0
DWIDTH 23 0
BBX 20 32 2 0
BITMAP
000E00
000C00
001C00
003800
003000
007000
000000
000000
00F800
07FF00
0FFF80
1E03C0
3C01E0
7800E0
700070
F00070
E00000
E00000
E00000
E00000
E00000
E00000
E00000
E00000
E00000
700070
7000E0
3801E0
3C03C0
1F9F80
0FFF00
03FC00
ENDCHAR
STARTCHAR 0107
ENCODING 263
SWIDTH 570 0
DWIDTH 19 0
BBX 16 26 2 0
BITMAP
0038
0070
0070
00E0
00C0
01C0
0000
0000
07E0
1FF8
3F7C
781E
700E
E006
E007
E000
E000
E000
E000
E007
E006
700E
781E
3E3C
1FF8
0FF0
ENDCHAR
STARTCHAR 010A
ENCODING 266
SWIDTH 690 0
DWIDTH 23 0
BBX 20 30 2 0
BITMAP
00F000
00F000
00F000
000000
000000
000000
00F800
07FF00
0FFF80
1E03C0
3C01E0
7800E0
700070
F00070
E00000
E00000
E00000
E00000
E00000
E00000
E00000
E00000
E00000
700070
7000E0
3801E0
3C03C0
1F9F80
0FFF00
03FC00
ENDCHAR
STARTCHAR 010B
ENCODING 267
SWIDTH 570 0
DWIDTH 19 0
BBX 16 24 2 1
BITMAP
03C0
03C0
0180
0000
0000
0000
07E0
1FF8
3F7C
781E
700E
E006
E007
E000
E000
E000
E000
E007
E006
700E
781E
3E3C
1FF8
0FF0
ENDCHAR
STARTCHAR 010C
ENCODING 268
SWIDTH 690 0
DWIDTH 23 0
BBX 20 30 2 0
BITMAP
070E00
039C00
01F800
00F000
000000
000000
00F800
07FF00
0FFF80
1E03C0
3C01E0
7800E0
700070
F00070
E00000
E00000
E00000
E00000
E00000
E00000
E00000
E00000
E00000
700070
7000E0
3801E0
3C03C0
1F9F80
0FFF00
03FC00
ENDCHAR
STARTCHAR 010D
ENCODING 269
SWIDTH 570 0
DWIDTH 19 0
BBX 16 25 2 0
BITMAP
381C
1C38
0E70
07E0
03C0
0000
0000
07E0
1FF8
3F7C
781E
700E
E006
E007
E000
E000
E000
E000
E007
E006
700E
781E
3E3C
1FF8
0FF0
ENDCHAR
STARTCHAR 010E
ENCODING 270
SWIDTH 660 0
DWIDTH 22 0
BBX 19 30 2 0
BITMAP
0E1C00
073800
03F000
01E000
000000
000000
000000
FFF800
FFFE00
E01F00
E00780
E003C0
E001C0
E001E0
E000E0
E000E0
E000E0
E000E0
E000E0
E000E0
E000E0
E000E0
E000E0
E001E0
E001C0
E003C0
E00F80
FFFF00
FFFE00
FFF800
ENDCHAR
STARTCHAR 010F
ENCODING 271
SWIDTH 720 0
DWIDTH 24 0
BBX 22 26 2 0
BITMAP
000038
00073C
00073C
00071C
00070C
00070C
000708
000730
0FC720
1FE700
3FF700
781F00
F00F00
E00F00
E00700
E00700
E00700
E00700
E00700
E00700
E00700
F00F00
701F00
7E7700
3FF700
0FC700
ENDCHAR
STARTCHAR 0110
ENCODING 272
SWIDTH 690 0
DWIDTH 23 0
BBX 20 23 2 0
BITMAP
7FFC00
7FFF00
701F80
7003C0
7001E0
7000E0
7000F0
700070
700070
700070
FF8070
FF8070
700070
700070
700070
700070
7000F0
7000E0
7001C0
7007C0
7FFF80
7FFE00
7FF800
ENDCHAR
STARTCHAR 0111
ENCODING 273
SWIDTH 600 0
DWIDTH 20 0
BBX 19 25 2 0
BITMAP
000700
000700
000700
00FFE0
00FFE0
000700
000700
0FC700
1FE700
3FF700
781F00
F00F00
E00F00
E00700
E00700
E00700
E00700
E00700
E00700
E00700
F00F00
701F00
7E7700
3FF700
0FC700
ENDCHAR
STARTCHAR 0112
ENCODING 274
SWIDTH 540 0
DWIDTH 18 0
BBX 15 28 2 0
BITMAP
1FF8
0000
0000
0000
0000
FFFE
FFFE
E000
E000
E000
E000
E000
E000
E000
E000
FFFC
FFFC
E000
E000
E000
E000
E000
E000
E000
E000
FFFE
FFFE
FFFE
ENDCHAR
STARTCHAR 0113
ENCODING 275
SWIDTH 570 0
DWIDTH 19 0
BBX 16 22 2 0
BITMAP
1FF8
0000
0000
0000
07E0
1FF8
3C7C
701C
700E
E00E
E006
E007
FFFF
FFFF
E000
E000
E000
700E
701E
3C3C
1FF8
0FE0
ENDCHAR
STARTCHAR 0116
ENCODING 278
SWIDTH 540 0
DWIDTH 18 0
BBX 15 30 2 0
BITMAP
0380
0380
0380
0000
0000
0000
0000
FFFE
FFFE
E000
E000
E000
E000
E000
E000
E000
E000
FFFC
FFFC
E000
E000
E000
E000
E000
E000
E000
E000
FFFE
FFFE
FFFE
ENDCHAR
STARTCHAR 0117
ENCODING 279
SWIDTH 570 0
DWIDTH 19 0
BBX 16 24 2 1
BITMAP
03C0
03C0
0380
0000
0000
0000
07E0
1FF8
3C7C
701C
700E
E00E
E006
E007
FFFF
FFFF
E000
E000
E000
700E
701E
3C3C
1FF8
0FE0
ENDCHAR
STARTCHAR 0118
ENCODING 280
SWIDTH 540 0
DWIDTH 18 0
BBX 16 28 2 -5
BITMAP
FFFE
FFFE
E000
E000
E000
E000
E000
E000
E000
E000
FFFC
FFFC
E000
E000
E000
E000
E000
E000
E000
E000
FFFE
FFFE
FFFE
000C
0018
0018
001C
000F
ENDCHAR
STARTCHAR 0119
ENCODING 281
SWIDTH 570 0
DWIDTH 19 0
BBX 16 24 2 -6
BITMAP
07E0
1FF8
3C7C
701C
700E
E00E
E006
E007
FFFF
FFFF
E000
E000
E000
700E
701E
3C3C
1FF8
0FE0
0380
0700
0600
0700
03C0
0040
ENDCHAR
STARTCHAR 011A
ENCODING 282
SWIDTH 540 0
DWIDTH 18 0
BBX 15 30 2 0
BITMAP
1C38
0E70
07E0
03C0
0000
0000
0000
FFFE
FFFE
E000
E000
E000
E000
E000
E000
E000
E000
FFFC
FFFC
E000
E000
E000
E000
E000
E000
E000
E000
FFFE
FFFE
FFFE
ENDCHAR
STARTCHAR 011B
ENCODING 283
SWIDTH 570 0
DWIDTH 19 0
BBX 16 25 2 0
BITMAP
3818
1C38
0E70
07E0
03C0
0000
0000
07E0
1FF8
3C7C
701C
700E
E00E
E006
E007
FFFF
FFFF
E000
E000
E000
700E
701E
3C3C
1FF8
0FE0
ENDCHAR
STARTCHAR 011E
ENCODING 286
SWIDTH 690 0
DWIDTH 23 0
BBX 20 30 2 0
BITMAP
060700
070E00
03FC00
00F800
000000
000000
00F800
07FE00
0FFF80
1E07C0
3801C0
7800E0
7000E0
E00070
E00000
E00000
E00000
E00000
E01FF0
E01FF0
E00070
E00070
E00070
700070
7000F0
3800F0
3C03F0
1F0F70
0FFE70
03FC70
ENDCHAR
STARTCHAR 011F
ENCODING 287
SWIDTH 600 0
DWIDTH 20 0
BBX 16 31 2 -7
BITMAP
181C
1C38
0FF0
03C0
0000
0000
0FC7
1FE7
3F77
781F
F00F
E007
E007
E007
E007
E007
E007
E007
F00F
700F
781F
3FF7
1FE7
0387
0007
0007
000F
001E
07FC
07F8
07F0
ENDCHAR
STARTCHAR 0120
ENCODING 288
SWIDTH 690 0
DWIDTH 23 0
BBX 20 30 2 0
BITMAP
007000
00F000
00F000
000000
000000
000000
00F800
07FE00
0FFF80
1E07C0
3801C0
7800E0
7000E0
E00070
E00000
E00000
E00000
E00000
E01FF0
E01FF0
E00070
E00070
E00070
700070
7000F0
3800F0
3C03F0
1F0F70
0FFE70
03FC70
ENDCHAR
STARTCHAR 0121
ENCODING 289
SWIDTH 600 0
DWIDTH 20 0
BBX 16 31 2 -6
BITMAP
03C0
03C0
01C0
0000
0000
0000
0FC7
1FE7
3F77
781F
F00F
E007
E007
E007
E007
E007
E007
E007
F00F
700F
781F
3FF7
1FE7
0387
0007
0007
000F
001E
07FC
07F8
07F0
ENDCHAR
STARTCHAR 0126
ENCODING 294
SWIDTH 690 0
DWIDTH 23 0
BBX 21 23 1 0
BITMAP
3800E0
3800E0
3800E0
3800E0
FFFFF8
FFFFF8
3800E0
3800E0
3800E0
3800E0
3FFFE0
3FFFE0
3800E0
3800E0
3800E0
3800E0
3800E0
3800E0
3800E0
3800E0
3800E0
3800E0
3800E0
ENDCHAR
STARTCHAR 0127
ENCODING 295
SWIDTH 600 0
DWIDTH 20 0
BBX 18 25 0 0
BITMAP
1C0000
1C0000
1C0000
FFE000
FFE000
1C0000
1C0000
1C7E00
1CFF80
1DFF80
1F03C0
1E01C0
1C01C0
1C01C0
1C00C0
1C00C0
1C00C0
1C00C0
1C00C0
1C00C0
1C00C0
1C00C0
1C00C0
1C00C0
1C00C0
ENDCHAR
STARTCHAR 0128
ENCODING 296
SWIDTH 240 0
DWIDTH 8 0
BBX 10 30 -1 0
BITMAP
78C0
7FC0
C780
C300
0000
0000
0000
0E00
0E00
0E00
0E00
0E00
0E00
0E00
0E00
0E00
0E00
0E00
0E00
0E00
0E00
0E00
0E00
0E00
0E00
0E00
0E00
0E00
0E00
0E00
ENDCHAR
STARTCHAR 0129
ENCODING 297
SWIDTH 240 0
DWIDTH 8 0
BBX 10 24 -1 0
BITMAP
78C0
7FC0
C780
0000
0000
0000
0E00
0E00
0E00
0E00
0E00
0E00
0E00
0E00
0E00
0E00
0E00
0E00
0E00
0E00
0E00
0E00
0E00
0E00
ENDCHAR
STARTCHAR 012A
ENCODING 298
SWIDTH 240 0
DWIDTH 8 0
BBX 10 28 -1 0
BITMAP
FFC0
0000
0000
0000
0000
0E00
0E00
0E00
0E00
0E00
0E00
0E00
0E00
0E00
0E00
0E00
0E00
0E00
0E00
0E00
0E00
0E00
0E00
0E00
0E00
0E00
0E00
0E00
ENDCHAR
STARTCHAR 012B
ENCODING 299
SWIDTH 240 0
DWIDTH 8 0
BBX 10 22 -1 0
BITMAP
FFC0
0000
0000
0000
0E00
0E00
0E00
0E00
0E00
0E00
0E00
0E00
0E00
0E00
0E00
0E00
0E00
0E00
0E00
0E00
0E00
0E00
ENDCHAR
STARTCHAR 012E
ENCODING 302
SWIDTH 240 0
DWIDTH 8 0
BBX 5 28 2 -5
BITMAP
70
70
70
70
70
70
70
70
70
70
70
70
70
70
70
70
70
70
70
70
70
70
70
E0
C0
C0
E0
F8
ENDCHAR
STARTCHAR 012F
ENCODING 303
SWIDTH 240 0
DWIDTH 8 0
BBX 5 29 2 -4
BITMAP
F0
F0
70
00
00
00
70
70
70
70
70
70
70
70
70
70
70
70
70
70
70
70
70
70
E0
C0
C0
E0
78
ENDCHAR
STARTCHAR 0130
ENCODING 304
SWIDTH 240 0
DWIDTH 8 0
BBX 4 30 2 0
BITMAP
F0
F0
F0
00
00
00
00
70
70
70
70
70
70
70
70
70
70
70
70
70
70
70
70
70
70
70
70
70
70
70
ENDCHAR
STARTCHAR 0131
ENCODING 305
SWIDTH 240 0
DWIDTH 8 0
BBX 3 18 3 0
BITMAP
E0
E0
E0
E0
E0
E0
E0
E0
E0
E0
E0
E0
E0
E0
E0
E0
E0
E0
ENDCHAR
STARTCHAR 0139
ENCODING 313
SWIDTH 510 0
DWIDTH 17 0
BBX 14 32 2 0
BITMAP
0E00
1C00
1C00
3800
3000
7000
0000
0000
0000
E000
E000
E000
E000
E000
E000
E000
E000
E000
E000
E000
E000
E000
E000
E000
E000
E000
E000
E000
E000
FFFC
FFFC
FFFC
ENDCHAR
STARTCHAR 013A
ENCODING 314
SWIDTH 300 0
DWIDTH 10 0
BBX 6 33 3 0
BITMAP
1C
38
30
70
60
C0
00
00
E0
E0
E0
E0
E0
E0
E0
E0
E0
E0
E0
E0
E0
E0
E0
E0
E0
E0
E0
E0
E0
E0
E0
FC
7C
ENDCHAR
STARTCHAR 013D
ENCODING 317
SWIDTH 510 0
DWIDTH 17 0
BBX 17 30 -1 0
BITMAP
E1C000
738000
3F0000
1E0000
000000
000000
000000
1C0000
1C0000
1C0000
1C0000
1C0000
1C0000
1C0000
1C0000
1C0000
1C0000
1C0000
1C0000
1C0000
1C0000
1C0000
1C0000
1C0000
1C0000
1C0000
1C0000
1FFF80
1FFF80
1FFF80
ENDCHAR
STARTCHAR 013E
ENCODING 318
SWIDTH 330 0
DWIDTH 11 0
BBX 8 26 3 0
BITMAP
0F
EF
EF
E7
E1
E1
E3
E6
E0
E0
E0
E0
E0
E0
E0
E0
E0
E0
E0
E0
E0
E0
E0
E0
FC
7C
ENDCHAR
STARTCHAR 0143
ENCODING 323
SWIDTH 690 0
DWIDTH 23 0
BBX 19 32 2 0
BITMAP
000E00
001C00
001C00
003800
003000
007000
000000
000000
000000
F000E0
F800E0
FC00E0
FC00E0
FE00E0
EF00E0
E700E0
E780E0
E3C0E0
E1C0E0
E1E0E0
E0F0E0
E070E0
E038E0
E03CE0
E01CE0
E00EE0
E00FE0
E007E0
E003E0
E003E0
E001E0
E000E0
ENDCHAR
STARTCHAR 0144
ENCODING 324
SWIDTH 600 0
DWIDTH 20 0
BBX 16 26 2 0
BITMAP
0038
0038
0070
0060
00C0
01C0
0000
0000
E1F0
E7FC
EFFE
E81E
F00F
F007
E007
E007
E007
E007
E007
E007
E007
E007
E007
E007
E007
E007
ENDCHAR
STARTCHAR 0147
ENCODING 327
SWIDTH 690 0
DWIDTH 23 0
BBX 19 30 2 0
BITMAP
070E00
039C00
01F800
00F000
000000
000000
000000
F000E0
F800E0
FC00E0
FC00E0
FE00E0
EF00E0
E700E0
E780E0
E3C0E0
E1C0E0
E1E0E0
E0F0E0
E070E0
E038E0
E03CE0
E01CE0
E00EE0
E00FE0
E007E0
E003E0
E003E0
E001E0
E000E0
ENDCHAR
STARTCHAR 0148
ENCODING 328
SWIDTH 600 0
DWIDTH 20 0
BBX 16 25 2 0
BITMAP
1C1C
0C38
0E70
07E0
03C0
0000
0000
E1F0
E7FC
EFFE
E81E
F00F
F007
E007
E007
E007
E007
E007
E007
E007
E007
E007
E007
E007
E007
ENDCHAR
STARTCHAR 014C
ENCODING 332
SWIDTH 720 0
DWIDTH 24 0
BBX 21 28 2 0
BITMAP
07FE00
000000
000000
000000
01F800
07FF00
0FFF80
1E07C0
3C01E0
7800E0
7000F0
F00070
E00070
E00078
E00038
E00038
E00038
E00038
E00038
E00070
E00070
700070
7000E0
7801E0
3C03C0
1FDF80
0FFF00
03FC00
ENDCHAR
STARTCHAR 014D
ENCODING 333
SWIDTH 570 0
DWIDTH 19 0
BBX 16 22 2 0
BITMAP
1FF8
0000
0000
0000
07E0
1FF8
3EFC
781E
700E
E007
E007
E007
E007
E007
E007
E007
E007
700E
781E
3E3C
1FF8
0FE0
ENDCHAR
STARTCHAR 0152
ENCODING 338
SWIDTH 960 0
DWIDTH 32 0
BBX 29 23 1 0
BITMAP
01FFFFF8
07FFFFF8
0F81C000
1E01C000
3C01C000
3801C000
7001C000
7001C000
7001C000
7001C000
E001FFF0
E001FFF0
F001C000
7001C000
7001C000
7001C000
7801C000
3801C000
3C01C000
1E01C000
0FFFFFF8
07FFFFF8
01FFFFF8
ENDCHAR
STARTCHAR 0153
ENCODING 339
SWIDTH 960 0
DWIDTH 32 0
BBX 29 18 2 0
BITMAP
07E01F80
1FF07FC0
3EF8F1E0
781DC070
700F8030
E00F8038
E0070038
E0070038
E007FFF8
E007FFF8
E0070000
E0070000
E0078000
700F8038
701DC070
3C3CF1F0
1FF87FE0
0FE03F80
ENDCHAR
STARTCHAR 0154
ENCODING 340
SWIDTH 600 0
DWIDTH 20 0
BBX 16 32 2 0
BITMAP
0038
0070
00E0
00E0
01C0
0180
0000
0000
0000
FFF8
FFFC
E03E
E00F
E007
E003
E003
E003
E007
E007
E01E
FFFE
FFFC
FFE0
E0E0
E070
E070
E038
E01C
E01C
E00E
E007
E007
ENDCHAR
STARTCHAR 0155
ENCODING 341
SWIDTH 330 0
DWIDTH 11 0
BBX 9 26 2 0
BITMAP
0380
0700
0700
0E00
0C00
1C00
0000
0000
E180
E780
EF80
FC00
F000
F000
E000
E000
E000
E000
E000
E000
E000
E000
E000
E000
E000
E000
ENDCHAR
STARTCHAR 0158
ENCODING 344
SWIDTH 600 0
DWIDTH 20 0
BBX 16 30 2 0
BITMAP
3C78
0CE0
0EC0
07C0
0000
0000
0000
FFF8
FFFC
E03E
E00F
E007
E003
E003
E003
E007
E007
E01E
FFFE
FFFC
FFE0
E0E0
E070
E070
E038
E01C
E01C
E00E
E007
E007
ENDCHAR
STARTCHAR 0159
ENCODING 345
SWIDTH 330 0
DWIDTH 11 0
BBX 12 25 0 0
BITMAP
E070
70E0
39C0
1F80
0F00
0000
0000
3860
39E0
3BE0
3F00
3C00
3C00
3800
3800
3800
3800
3800
3800
3800
3800
3800
3800
3800
3800
ENDCHAR
STARTCHAR 015A
ENCODING 346
SWIDTH 570 0
DWIDTH 19 0
BBX 16 32 2 0
BITMAP
001C
0038
0030
0070
00E0
00C0
0000
0000
07E0
1FF8
3FFC
781E
700E
E00F
E007
E000
7000
7800
3E00
1FF0
0FFC
007E
000F
0007
E007
E007
E007
F007
780F
3E7E
1FFC
0FF0
ENDCHAR
STARTCHAR 015B
ENCODING 347
SWIDTH 480 0
DWIDTH 16 0
BBX 13 26 2 0
BITMAP
00E0
00E0
01C0
0180
0380
0300
0000
0000
1F80
3FE0
70F0
E070
E038
E000
E000
7800
3FC0
1FF0
00F0
0038
C038
E038
E038
78F0
7FF0
1FC0
ENDCHAR
STARTCHAR 015E
ENCODING 350
SWIDTH 570 0
DWIDTH 19 0
BBX 16 32 2 -8
BITMAP
07E0
1FF8
3FFC
781E
700E
E00F
E007
E000
7000
7800
3E00
1FF0
0FFC
007E
000F
0007
E007
E007
E007
F007
780F
3E7E
1FFC
0FF0
0180
0100
03E0
0070
0010
0010
0170
01E0
ENDCHAR
STARTCHAR 015F
ENCODING 351
SWIDTH 480 0
DWIDTH 16 0
BBX 13 26 2 -8
BITMAP
1F80
3FE0
70F0
E070
E038
E000
E000
7800
3FC0
1FF0
00F0
0038
C038
E038
E038
78F0
7FF0
1FC0
0200
0600
07C0
00E0
0060
0060
07E0
07C0
ENDCHAR
STARTCHAR 0160
ENCODING 352
SWIDTH 570 0
DWIDTH 19 0
BBX 16 30 2 0
BITMAP
1E1C
0738
0370
03E0
0000
0000
07E0
1FF8
3FFC
781E
700E
E00F
E007
E000
7000
7800
3E00
1FF0
0FFC
007E
000F
0007
E007
E007
E007
F007
780F
3E7E
1FFC
0FF0
ENDCHAR
STARTCHAR 0161
ENCODING 353
SWIDTH 480 0
DWIDTH 16 0
BBX 13 25 2 0
BITMAP
7070
38E0
1DC0
0F80
0700
0000
0000
1F80
3FE0
70F0
E070
E038
E000
E000
7800
3FC0
1FF0
00F0
0038
C038
E038
E038
78F0
7FF0
1FC0
ENDCHAR
STARTCHAR 0162
ENCODING 354
SWIDTH 570 0
DWIDTH 19 0
BBX 17 31 1 -8
BITMAP
FFFF80
FFFF80
01C000
01C000
01C000
01C000
01C000
01C000
01C000
01C000
01C000
01C000
01C000
01C000
01C000
01C000
01C000
01C000
01C000
01C000
01C000
01C000
01C000
018000
018000
01F000
003800
001800
001800
017000
01F000
ENDCHAR
STARTCHAR 0163
ENCODING 355
SWIDTH 390 0
DWIDTH 13 0
BBX 11 31 1 -8
BITMAP
1C00
1C00
1C00
1C00
1C00
FFC0
FFC0
FFC0
1C00
1C00
1C00
1C00
1C00
1C00
1C00
1C00
1C00
1C00
1C00
1C00
1E00
0FC0
07C0
0200
0600
07C0
00E0
0060
0060
07E0
07C0
ENDCHAR
STARTCHAR 0164
ENCODING 356
SWIDTH 570 0
DWIDTH 19 0
BBX 17 30 1 0
BITMAP
0E1C00
073800
03F000
01E000
000000
000000
000000
FFFF80
FFFF80
01C000
01C000
01C000
01C000
01C000
01C000
01C000
01C000
01C000
01C000
01C000
01C000
01C000
01C000
01C000
01C000
01C000
01C000
01C000
01C000
01C000
ENDCHAR
STARTCHAR 0165
ENCODING 357
SWIDTH 480 0
DWIDTH 16 0
BBX 15 26 1 0
BITMAP
001E
001E
001E
1C0E
1C06
1C06
1C04
1C1C
FFD0
FFC0
FFC0
1C00
1C00
1C00
1C00
1C00
1C00
1C00
1C00
1C00
1C00
1C00
1C00
1E00
0FC0
07C0
ENDCHAR
STARTCHAR 0166
ENCODING 358
SWIDTH 570 0
DWIDTH 19 0
BBX 17 23 1 0
BITMAP
FFFF80
FFFF80
01C000
01C000
01C000
01C000
01C000
01C000
01C000
3FFF00
3FFF00
01C000
01C000
01C000
01C000
01C000
01C000
01C000
01C000
01C000
01C000
01C000
01C000
ENDCHAR
STARTCHAR 0167
ENCODING 359
SWIDTH 390 0
DWIDTH 13 0
BBX 10 23 1 0
BITMAP
1C00
1C00
1C00
1C00
1C00
FFC0
FFC0
FFC0
1C00
1C00
1C00
1C00
FFC0
FFC0
1C00
1C00
1C00
1C00
1C00
1C00
1E00
0FC0
07C0
ENDCHAR
STARTCHAR 0168
ENCODING 360
SWIDTH 660 0
DWIDTH 22 0
BBX 19 30 2 0
BITMAP
038C00
07EC00
067C00
041000
000000
000000
000000
E000E0
E000E0
E000E0
E000E0
E000E0
E000E0
E000E0
E000E0
E000E0
E000E0
E000E0
E000E0
E000E0
E000E0
E000E0
E001C0
7001C0
7001C0
780380
3C0780
1FBF00
0FFE00
07FC00
ENDCHAR
STARTCHAR 0169
ENCODING 361
SWIDTH 600 0
DWIDTH 20 0
BBX 16 24 2 0
BITMAP
0F10
1FF0
19F0
0000
0000
0000
E007
E007
E007
E007
E007
E007
E007
E007
E007
E007
E007
6007
7007
700F
781F
3E77
3FE7
0FC7
ENDCHAR
STARTCHAR 016A
ENCODING 362
SWIDTH 660 0
DWIDTH 22 0
BBX 19 28 2 0
BITMAP
0FFC00
000000
000000
000000
000000
E000E0
E000E0
E000E0
E000E0
E000E0
E000E0
E000E0
E000E0
E000E0
E000E0
E000E0
E000E0
E000E0
E000E0
E000E0
E001C0
7001C0
7001C0
780380
3C0780
1FBF00
0FFE00
07FC00
ENDCHAR
STARTCHAR 016B
ENCODING 363
SWIDTH 600 0
DWIDTH 20 0
BBX 16 22 2 0
BITMAP
1FF8
0000
0000
0000
E007
E007
E007
E007
E007
E007
E007
E007
E007
E007
E007
6007
7007
700F
781F
3E77
3FE7
0FC7
ENDCHAR
STARTCHAR 016E
ENCODING 366
SWIDTH 660 0
DWIDTH 22 0
BBX 19 32 2 0
BITMAP
00E000
01B000
011000
011000
01F000
00E000
000000
000000
000000
E000E0
E000E0
E000E0
E000E0
E000E0
E000E0
E000E0
E000E0
E000E0
E000E0
E000E0
E000E0
E000E0
E000E0
E000E0
E001C0
7001C0
7001C0
780380
3C0780
1FBF00
0FFE00
07FC00
ENDCHAR
STARTCHAR 016F
ENCODING 367
SWIDTH 600 0
DWIDTH 20 0
BBX 16 26 2 0
BITMAP
03C0
0640
0460
0440
07C0
0100
0000
0000
E007
E007
E007
E007
E007
E007
E007
E007
E007
E007
E007
6007
7007
700F
781F
3E77
3FE7
0FC7
ENDCHAR
STARTCHAR 0172
ENCODING 370
SWIDTH 660 0
DWIDTH 22 0
BBX 19 29 2 -6
BITMAP
E000E0
E000E0
E000E0
E000E0
E000E0
E000E0
E000E0
E000E0
E000E0
E000E0
E000E0
E000E0
E000E0
E000E0
E000E0
E001C0
7001C0
7001C0
7803C0
3C0780
3FBF00
0FFE00
07FC00
00C000
018000
018000
018000
00F000
007000
ENDCHAR
STARTCHAR 0173
ENCODING 371
SWIDTH 600 0
DWIDTH 20 0
BBX 17 23 2 -5
BITMAP
E00700
E00700
E00700
E00700
E00700
E00700
E00700
E00700
E00700
E00700
E00700
600700
700700
700F00
781F00
3E7700
3FE700
0FC700
000E00
000C00
001800
000E00
000F80
ENDCHAR
STARTCHAR 0174
ENCODING 372
SWIDTH 990 0
DWIDTH 33 0
BBX 31 30 1 0
BITMAP
0007C000
0006E000
000E6000
001C7000
00200800
00000000
00000000
E0038006
E003800E
E007C00E
6007C00E
7007C01C
700EE01C
700EE01C
300E601C
381C7038
381C7038
381C3038
18383830
1C383870
1C383870
1C701C70
0E701C60
0E701CE0
0EE00EE0
06E00EE0
07E00EC0
07C007C0
07C007C0
03C00780
ENDCHAR
STARTCHAR 0175
ENCODING 373
SWIDTH 810 0
DWIDTH 27 0
BBX 25 25 1 0
BITMAP
001C0000
003E0000
00770000
00638000
00E1C000
00000000
00000000
E01C0380
E01C0380
601E0380
703E0300
703E0700
70370700
30770700
38770600
38730E00
18638E00
1CE38C00
1CE19C00
1CC1DC00
0DC1DC00
0FC0D800
0F80F800
0780F800
0780F000
ENDCHAR
STARTCHAR 0176
ENCODING 374
SWIDTH 600 0
DWIDTH 20 0
BBX 17 30 2 0
BITMAP
03C000
07E000
0E7000
1C3800
000000
000000
000000
E00380
E00700
700700
700E00
380E00
381C00
1C1C00
1C3800
0E3800
0E7000
077000
07E000
03E000
03C000
01C000
01C000
01C000
01C000
01C000
01C000
01C000
01C000
01C000
ENDCHAR
STARTCHAR 0177
ENCODING 375
SWIDTH 510 0
DWIDTH 17 0
BBX 16 32 1 -7
BITMAP
0180
03C0
07E0
0E70
1C38
0000
0000
E007
E007
700E
700E
300E
381C
381C
1C38
1C38
1C30
0E70
0E70
0660
07E0
07C0
03C0
03C0
0380
0380
0700
0700
0F00
7E00
7C00
7000
ENDCHAR
STARTCHAR 0178
ENCODING 376
SWIDTH 600 0
DWIDTH 20 0
BBX 17 30 2 0
BITMAP
1E3800
1E3800
1E3800
000000
000000
000000
000000
E00380
E00700
700700
700E00
380E00
381C00
1C1C00
1C3800
0E3800
0E7000
077000
07E000
03E000
03C000
01C000
01C000
01C000
01C000
01C000
01C000
01C000
01C000
01C000
ENDCHAR
STARTCHAR 0179
ENCODING 377
SWIDTH 600 0
DWIDTH 20 0
BBX 16 32 2 0
BITMAP
0038
0038
0070
0060
00E0
00C0
0000
0000
0000
FFFF
FFFF
0007
000E
001E
003C
0038
0078
00F0
00E0
01C0
03C0
0780
0700
0E00
1E00
3C00
3800
7800
F000
FFFF
FFFF
FFFF
ENDCHAR
STARTCHAR 017A
ENCODING 378
SWIDTH 480 0
DWIDTH 16 0
BBX 13 26 2 0
BITMAP
0070
00E0
01C0
01C0
0380
0300
0000
0000
FFF8
FFF8
FFF8
0078
0070
00E0
01C0
0380
0780
0700
0E00
1C00
3800
7800
7000
E000
FFF8
FFF8
ENDCHAR
STARTCHAR 017B
ENCODING 379
SWIDTH 600 0
DWIDTH 20 0
BBX 16 30 2 0
BITMAP
01C0
03C0
01C0
0000
0000
0000
0000
FFFF
FFFF
0007
000E
001E
003C
0038
0078
00F0
00E0
01C0
03C0
0780
0700
0E00
1E00
3C00
3800
7800
F000
FFFF
FFFF
FFFF
ENDCHAR
STARTCHAR 017C
ENCODING 380
SWIDTH 480 0
DWIDTH 16 0
BBX 13 25 2 0
BITMAP
0200
0700
0700
0700
0000
0000
0000
FFF8
FFF8
FFF8
0078
0070
00E0
01C0
0380
0780
0700
0E00
1C00
3800
7800
7000
E000
FFF8
FFF8
ENDCHAR
STARTCHAR 017D
ENCODING 381
SWIDTH 600 0
DWIDTH 20 0
BBX 16 30 2 0
BITMAP
1C38
0E70
07E0
03C0
0000
0000
0000
FFFF
FFFF
0007
000E
001E
003C
0038
0078
00F0
00E0
01C0
03C0
0780
0700
0E00
1E00
3C00
3800
7800
F000
FFFF
FFFF
FFFF
ENDCHAR
STARTCHAR 017E
ENCODING 382
SWIDTH 480 0
DWIDTH 16 0
BBX 13 25 2 0
BITMAP
7070
38E0
1DC0
0F80
0700
0000
0000
FFF8
FFF8
FFF8
0078
0070
00E0
01C0
0380
0780
0700
0E00
1C00
3800
7800
7000
E000
FFF8
FFF8
ENDCHAR
STARTCHAR 01A0
ENCODING 416
SWIDTH 720 0
DWIDTH 24 0
BBX 21 26 2 0
BITMAP
000060
000060
01F9E0
07FFC0
0FFF80
1E07C0
3C01E0
7800E0
7000F0
F00070
E00070
E00078
E00038
E00038
E00038
E00038
E00038
E00070
E00070
700070
7000E0
7801E0
3C03C0
1FDF80
0FFF00
03FC00
ENDCHAR
STARTCHAR 01A1
ENCODING 417
SWIDTH 600 0
DWIDTH 20 0
BBX 16 21 2 0
BITMAP
0003
0003
0003
07FF
1FFE
3EFC
781E
700E
E007
E007
E007
E007
E007
E007
E007
E007
700E
781E
3E3C
1FF8
0FE0
ENDCHAR
STARTCHAR 01AF
ENCODING 431
SWIDTH 660 0
DWIDTH 22 0
BBX 22 26 2 0
BITMAP
00000C
00000C
00001C
E000F8
E000E0
E000E0
E000E0
E000E0
E000E0
E000E0
E000E0
E000E0
E000E0
E000E0
E000E0
E000E0
E000E0
E000E0
E001C0
7001C0
7001C0
780380
3C0780
1FBF00
0FFE00
07FC00
ENDCHAR
STARTCHAR 01B0
ENCODING 432
SWIDTH 600 0
DWIDTH 20 0
BBX 19 21 2 0
BITMAP
000060
000060
000060
E007E0
E007C0
E00700
E00700
E00700
E00700
E00700
E00700
E00700
E00700
E00700
600700
700700
700F00
781F00
3E7700
3FE700
0FC700
ENDCHAR
STARTCHAR 02C6
ENCODING 710
SWIDTH 390 0
DWIDTH 13 0
BBX 10 5 2 20
BITMAP
1C00
1E00
3F00
7380
E1C0
ENDCHAR
STARTCHAR 02C7
ENCODING 711
SWIDTH 390 0
DWIDTH 13 0
BBX 11 5 1 20
BITMAP
E0E0
71C0
3B80
1F00
0F00
ENDCHAR
STARTCHAR 02D8
ENCODING 728
SWIDTH 390 0
DWIDTH 13 0
BBX 11 4 1 20
BITMAP
E060
70C0
3F80
0F00
ENDCHAR
STARTCHAR 02D9
ENCODING 729
SWIDTH 150 0
DWIDTH 5 0
BBX 4 3 1 22
BITMAP
F0
F0
E0
ENDCHAR
STARTCHAR 02DA
ENCODING 730
SWIDTH 210 0
DWIDTH 7 0
BBX 6 6 1 20
BITMAP
78
CC
8C
CC
78
20
ENDCHAR
STARTCHAR 02DB
ENCODING 731
SWIDTH 210 0
DWIDTH 7 0
BBX 5 6 1 -6
BITMAP
20
60
C0
C0
F8
78
ENDCHAR
STARTCHAR 02DC
ENCODING 732
SWIDTH 360 0
DWIDTH 12 0
BBX 9 3 2 21
BITMAP
F980
FF80
8F00
ENDCHAR
STARTCHAR 0300
ENCODING 768
SWIDTH 0 0
DWIDTH 0 0
BBX 6 6 -8 21
BITMAP
E0
70
38
38
1C
0C
ENDCHAR
STARTCHAR 0301
ENCODING 769
SWIDTH 0 0
DWIDTH 0 0
BBX 6 6 -6 21
BITMAP
1C
38
30
70
E0
C0
ENDCHAR
STARTCHAR 0302
ENCODING 770
SWIDTH 0 0
DWIDTH 0 0
BBX 10 5 -11 20
BITMAP
1C00
1E00
3700
7380
E1C0
ENDCHAR
STARTCHAR 0303
ENCODING 771
SWIDTH 0 0
DWIDTH 0 0
BBX 9 3 -10 21
BITMAP
F980
FF80
8F00
ENDCHAR
STARTCHAR 0304
ENCODING 772
SWIDTH 0 0
DWIDTH 0 0
BBX 10 2 -12 21
BITMAP
FFC0
FFC0
ENDCHAR
STARTCHAR 0306
ENCODING 774
SWIDTH 0 0
DWIDTH 0 0
BBX 11 4 -12 20
BITMAP
E060
71C0
3F80
0E00
ENDCHAR
STARTCHAR 0307
ENCODING 775
SWIDTH 0 0
DWIDTH 0 0
BBX 4 4 -6 21
BITMAP
40
F0
F0
E0
ENDCHAR
STARTCHAR 0308
ENCODING 776
SWIDTH 0 0
DWIDTH 0 0
BBX 10 4 -12 21
BITMAP
4000
E3C0
E3C0
E380
ENDCHAR
STARTCHAR 0309
ENCODING 777
SWIDTH 0 0
DWIDTH 0 0
BBX 7 6 -8 21
BITMAP
38
FE
C6
06
0C
18
ENDCHAR
STARTCHAR 030A
ENCODING 778
SWIDTH 0 0
DWIDTH 0 0
BBX 6 6 -8 20
BITMAP
78
4C
C4
44
7C
10
ENDCHAR
STARTCHAR 030C
ENCODING 780
SWIDTH 0 0
DWIDTH 0 0
BBX 11 5 -12 20
BITMAP
C0E0
61C0
7380
3F00
1E00
ENDCHAR
STARTCHAR 031B
ENCODING 795
SWIDTH 0 0
DWIDTH 0 0
BBX 6 5 -7 18
BITMAP
0C
0C
1C
F8
F0
ENDCHAR
STARTCHAR 0323
ENCODING 803
SWIDTH 0 0
DWIDTH 0 0
BBX 4 3 -4 -7
BITMAP
E0
F0
E0
ENDCHAR
STARTCHAR 0327
ENCODING 807
SWIDTH 0 0
DWIDTH 0 0
BBX 6 8 -7 -8
BITMAP
40
C0
F8
1C
0C
0C
FC
F8
ENDCHAR
STARTCHAR 0328
ENCODING 808
SWIDTH 0 0
DWIDTH 0 0
BBX 5 6 -6 -6
BITMAP
60
E0
C0
C0
E8
78
ENDCHAR
STARTCHAR 1E80
ENCODING 7808
SWIDTH 990 0
DWIDTH 33 0
BBX 31 32 1 0
BITMAP
00380000
001C0000
000E0000
000E0000
00070000
00030000
00000000
00000000
00000000
E0038006
E003800E
E007C00E
6007C00E
7007C01C
700EE01C
700EE01C
300E601C
381C7038
381C7038
381C3038
18383830
1C383870
1C383870
1C701C70
0E701C60
0E701CE0
0EE00EE0
06E00EE0
07E00EC0
07C007C0
07C007C0
03C00780
ENDCHAR
STARTCHAR 1E81
ENCODING 7809
SWIDTH 810 0
DWIDTH 27 0
BBX 25 26 1 0
BITMAP
00E00000
00E00000
00700000
00300000
00380000
00180000
00000000
00000000
E01C0380
E01C0380
601E0380
703E0300
703E0700
70370700
30770700
38770600
38730E00
18638E00
1CE38C00
1CE19C00
1CC1DC00
0DC1DC00
0FC0D800
0F80F800
0780F800
0780F000
ENDCHAR
STARTCHAR 1E82
ENCODING 7810
SWIDTH 990 0
DWIDTH 33 0
BBX 31 32 1 0
BITMAP
00003800
00007000
00006000
0000E000
0001C000
00018000
00000000
00000000
00000000
E0038006
E003800E
E007C00E
6007C00E
7007C01C
700EE01C
700EE01C
300E601C
381C7038
381C7038
381C3038
18383830
1C383870
1C383870
1C701C70
0E701C60
0E701CE0
0EE00EE0
06E00EE0
07E00EC0
07C007C0
07C007C0
03C00780
ENDCHAR
STARTCHAR 1E83
ENCODING 7811
SWIDTH 810 0
DWIDTH 27 0
BBX 25 26 1 0
BITMAP
0001C000
00038000
00030000
00070000
000E0000
000C0000
00000000
00000000
E01C0380
E01C0380
601E0380
703E0300
703E0700
70370700
30770700
38770600
38730E00
18638E00
1CE38C00
1CE19C00
1CC1DC00
0DC1DC00
0FC0D800
0F80F800
0780F800
0780F000
ENDCHAR
STARTCHAR 1E84
ENCODING 7812
SWIDTH 990 0
DWIDTH 33 0
BBX 31 30 1 0
BITMAP
001C7000
003C7800
001C7800
00000000
00000000
00000000
00000000
E0038006
E003800E
E007C00E
6007C00E
7007C01C
700EE01C
700EE01C
300E601C
381C7038
381C7038
381C3038
18383830
1C383870
1C383870
1C701C70
0E701C60
0E701CE0
0EE00EE0
06E00EE0
07E00EC0
07C007C0
07C007C0
03C00780
ENDCHAR
STARTCHAR 1E85
ENCODING 7813
SWIDTH 810 0
DWIDTH 27 0
BBX 25 25 1 0
BITMAP
00400000
00E3C000
00E3C000
00E18000
00000000
00000000
00000000
E01C0380
E01C0380
601E0380
703E0300
703E0700
70370700
30770700
38770600
38730E00
18638E00
1CE38C00
1CE19C00
1CC1DC00
0DC1DC00
0FC0D800
0F80F800
0780F800
0780F000
ENDCHAR
STARTCHAR 1EA0
ENCODING 7840
SWIDTH 660 0
DWIDTH 22 0
BBX 20 30 1 -7
BITMAP
007000
00F000
00F800
00F800
01DC00
019C00
038C00
038E00
030E00
070600
070700
060700
0E0380
0E0380
1FFF80
1FFFC0
1801C0
3800C0
3800E0
3000E0
700070
700070
E00070
000000
000000
000000
000000
007000
00F000
007000
ENDCHAR
STARTCHAR 1EA1
ENCODING 7841
SWIDTH 600 0
DWIDTH 20 0
BBX 16 25 2 -7
BITMAP
0FC7
1FE7
3FF7
781F
F00F
E00F
E007
E007
E007
E007
E007
E007
E00F
F00F
701F
7E77
3FE7
0FC7
0000
0000
0000
0000
01C0
03C0
01C0
ENDCHAR
STARTCHAR 1EA2
ENCODING 7842
SWIDTH 660 0
DWIDTH 22 0
BBX 20 32 1 0
BITMAP
00F000
01F800
018C00
000C00
001800
003000
000000
000000
000000
007000
00F000
00F800
00F800
01DC00
019C00
038C00
038E00
030E00
070600
070700
060700
0E0380
0E0380
1FFF80
1FFFC0
1801C0
3800C0
3800E0
3000E0
700070
700070
E00070
ENDCHAR
STARTCHAR 1EA3
ENCODING 7843
SWIDTH 600 0
DWIDTH 20 0
BBX 16 26 2 0
BITMAP
03E0
07E0
0630
0030
0060
01C0
0000
0000
0FC7
1FE7
3FF7
781F
F00F
E00F
E007
E007
E007
E007
E007
E007
E00F
F00F
701F
7E77
3FE7
0FC7
ENDCHAR
STARTCHAR 1EA4
ENCODING 7844
SWIDTH 660 0
DWIDTH 22 0
BBX 21 36 1 0
BITMAP
000078
000070
0000E0
0000E0
0001C0
000180
00F000
01F800
039C00
030E00
040000
000000
000000
007000
00F000
00F800
00F800
01DC00
019C00
038C00
038E00
030E00
070600
070700
060700
0E0380
0E0380
1FFF80
1FFFC0
1801C0
3800C0
3800E0
3000E0
700070
700070
E00070
ENDCHAR
STARTCHAR 1EA5
ENCODING 7845
SWIDTH 600 0
DWIDTH 20 0
BBX 18 30 2 0
BITMAP
0001C0
0001C0
000380
000300
000700
01C600
03C000
07E000
0E7000
1C3800
000000
000000
0FC700
1FE700
3FF700
781F00
F00F00
E00F00
E00700
E00700
E00700
E00700
E00700
E00700
E00F00
F00F00
701F00
7E7700
3FE700
0FC700
ENDCHAR
STARTCHAR 1EA6
ENCODING 7846
SWIDTH 660 0
DWIDTH 22 0
BBX 20 36 1 0
BITMAP
003C00
001C00
000E00
000600
000700
000300
00F000
01F800
039C00
030E00
040000
000000
000000
007000
00F000
00F800
00F800
01DC00
019C00
038C00
038E00
030E00
070600
070700
060700
0E0380
0E0380
1FFF80
1FFFC0
1801C0
3800C0
3800E0
3000E0
700070
700070
E00070
ENDCHAR
STARTCHAR 1EA7
ENCODING 7847
SWIDTH 600 0
DWIDTH 20 0
BBX 16 30 2 0
BITMAP
0070
0070
0038
0018
001C
01CC
03C0
07E0
0E70
1C38
0000
0000
0FC7
1FE7
3FF7
781F
F00F
E00F
E007
E007
E007
E007
E007
E007
E00F
F00F
701F
7E77
3FE7
0FC7
ENDCHAR
STARTCHAR 1EA8
ENCODING 7848
SWIDTH 660 0
DWIDTH 22 0
BBX 20 36 1 0
BITMAP
0007C0
000FE0
000C60
000060
0000C0
000180
00F000
01F800
039C00
030E00
040000
000000
000000
007000
00F000
00F800
00F800
01DC00
019C00
038C00
038E00
030E00
070600
070700
060700
0E0380
0E0380
1FFF80
1FFFC0
1801C0
3800C0
3800E0
3000E0
700070
700070
E00070
ENDCHAR
STARTCHAR 1EA9
ENCODING 7849
SWIDTH 600 0
DWIDTH 20 0
BBX 17 30 2 0
BITMAP
001F00
003F80
003180
000180
000300
01CE00
03C000
07E000
0E7000
1C3800
000000
000000
0FC700
1FE700
3FF700
781F00
F00F00
E00F00
E00700
E00700
E00700
E00700
E00700
E00700
E00F00
F00F00
701F00
7E7700
3FE700
0FC700
ENDCHAR
STARTCHAR 1EAA
ENCODING 7850
SWIDTH 660 0
DWIDTH 22 0
BBX 20 35 1 0
BITMAP
03E600
03FE00
023C00
000000
000000
00F000
01F800
039C00
030E00
040000
000000
000000
007000
00F000
00F800
00F800
01DC00
019C00
038C00
038E00
030E00
070600
070700
060700
0E0380
0E0380
1FFF80
1FFFC0
1801C0
3800C0
3800E0
3000E0
700070
700070
E00070
ENDCHAR
STARTCHAR 1EAB
ENCODING 7851
SWIDTH 600 0
DWIDTH 20 0
BBX 16 30 2 0
BITMAP
0218
0F98
0DF8
18F0
0000
01C0
03C0
07E0
0E70
1C38
0000
0000
0FC7
1FE7
3FF7
781F
F00F
E00F
E007
E007
E007
E007
E007
E007
E00F
F00F
701F
7E77
3FE7
0FC7
ENDCHAR
STARTCHAR 1EAC
ENCODING 7852
SWIDTH 660 0
DWIDTH 22 0
BBX 20 37 1 -7
BITMAP
00F000
01F800
039C00
030E00
040000
000000
000000
007000
00F000
00F800
00F800
01DC00
019C00
038C00
038E00
030E00
070600
070700
060700
0E0380
0E0380
1FFF80
1FFFC0
1801C0
3800C0
3800E0
3000E0
700070
700070
E00070
000000
000000
000000
000000
007000
00F000
007000
ENDCHAR
STARTCHAR 1EAD
ENCODING 7853
SWIDTH 600 0
DWIDTH 20 0
BBX 16 32 2 -7
BITMAP
01C0
03C0
07E0
0E70
1C38
0000
0000
0FC7
1FE7
3FF7
781F
F00F
E00F
E007
E007
E007
E007
E007
E007
E00F
F00F
701F
7E77
3FE7
0FC7
0000
0000
0000
0000
01C0
03C0
01C0
ENDCHAR
STARTCHAR 1EAE
ENCODING 7854
SWIDTH 660 0
DWIDTH 22 0
BBX 20 36 1 0
BITMAP
000E00
001C00
001C00
003800
003000
007000
060700
070600
03FC00
00F800
000000
000000
000000
007000
00F000
00F800
00F800
01DC00
019C00
038C00
038E00
030E00
070600
070700
060700
0E0380
0E0380
1FFF80
1FFFC0
1801C0
3800C0
3800E0
3000E0
700070
700070
E00070
ENDCHAR
STARTCHAR 1EAF
ENCODING 7855
SWIDTH 600 0
DWIDTH 20 0
BBX 16 31 2 0
BITMAP
0038
0038
0070
0060
00E0
00C0
0000
181C
1C38
0FF0
03C0
0000
0000
0FC7
1FE7
3FF7
781F
F00F
E00F
E007
E007
E007
E007
E007
E007
E00F
F00F
701F
7E77
3FE7
0FC7
ENDCHAR
STARTCHAR 1EB0
ENCODING 7856
SWIDTH 660 0
DWIDTH 22 0
BBX 20 36 1 0
BITMAP
038000
038000
01C000
00C000
00E000
006000
060300
070600
03FE00
00F800
000000
000000
000000
007000
00F000
00F800
00F800
01DC00
019C00
038C00
038E00
030E00
070600
070700
060700
0E0380
0E0380
1FFF80
1FFFC0
1801C0
3800C0
3800E0
3000E0
700070
700070
E00070
ENDCHAR
STARTCHAR 1EB1
ENCODING 7857
SWIDTH 600 0
DWIDTH 20 0
BBX 16 31 2 0
BITMAP
1C00
0E00
0E00
0700
0300
0380
0000
181C
1C38
0FF0
03C0
0000
0000
0FC7
1FE7
3FF7
781F
F00F
E00F
E007
E007
E007
E007
E007
E007
E00F
F00F
701F
7E77
3FE7
0FC7
ENDCHAR
STARTCHAR 1EB2
ENCODING 7858
SWIDTH 660 0
DWIDTH 22 0
BBX 20 37 1 0
BITMAP
002000
01F800
019C00
000C00
001C00
003800
007000
060700
070600
03FC00
00F800
000000
000000
000000
007000
00F000
00F800
00F800
01DC00
019C00
038C00
038E00
030E00
070600
070700
060700
0E0380
0E0380
1FFF80
1FFFC0
1801C0
3800C0
3800E0
3000E0
700070
700070
E00070
ENDCHAR
STARTCHAR 1EB3
ENCODING 7859
SWIDTH 600 0
DWIDTH 20 0
BBX 16 31 2 0
BITMAP
03C0
07E0
0670
0030
0060
00C0
0000
181C
1C38
0FF0
03C0
0000
0000
0FC7
1FE7
3FF7
781F
F00F
E00F
E007
E007
E007
E007
E007
E007
E00F
F00F
701F
7E77
3FE7
0FC7
ENDCHAR
STARTCHAR 1EB4
ENCODING 7860
SWIDTH 660 0
DWIDTH 22 0
BBX 20 35 1 0
BITMAP
01C600
03E600
037E00
021C00
000000
060700
070600
03FC00
00F800
000000
000000
000000
007000
00F000
00F800
00F800
01DC00
019C00
038C00
038E00
030E00
070600
070700
060700
0E0380
0E0380
1FFF80
1FFFC0
1801C0
3800C0
3800E0
3000E0
700070
700070
E00070
ENDCHAR
STARTCHAR 1EB5
ENCODING 7861
SWIDTH 600 0
DWIDTH 20 0
BBX 16 29 2 0
BITMAP
0F18
0FD8
18F0
1840
0000
181C
1C38
0FF0
03C0
0000
0000
0FC7
1FE7
3FF7
781F
F00F
E00F
E007
E007
E007
E007
E007
E007
E00F
F00F
701F
7E77
3FE7
0FC7
ENDCHAR
STARTCHAR 1EB6
ENCODING 7862
SWIDTH 660 0
DWIDTH 22 0
BBX 20 37 1 -7
BITMAP
060700
070600
03FC00
00F800
000000
000000
000000
007000
00F000
00F800
00F800
01DC00
019C00
038C00
038E00
030E00
070600
070700
060700
0E0380
0E0380
1FFF80
1FFFC0
1801C0
3800C0
3800E0
3000E0
700070
700070
E00070
000000
000000
000000
000000
007000
00F000
007000
ENDCHAR
STARTCHAR 1EB7
ENCODING 7863
SWIDTH 600 0
DWIDTH 20 0
BBX 16 31 2 -7
BITMAP
181C
1C38
0FF0
03C0
0000
0000
0FC7
1FE7
3FF7
781F
F00F
E00F
E007
E007
E007
E007
E007
E007
E00F
F00F
701F
7E77
3FE7
0FC7
0000
0000
0000
0000
01C0
03C0
01C0
ENDCHAR
STARTCHAR 1EB8
ENCODING 7864
SWIDTH 540 0
DWIDTH 18 0
BBX 15 30 2 -7
BITMAP
FFFE
FFFE
E000
E000
E000
E000
E000
E000
E000
E000
FFFC
FFFC
E000
E000
E000
E000
E000
E000
E000
E000
FFFE
FFFE
FFFE
0000
0000
0000
0000
0380
03C0
0380
ENDCHAR
STARTCHAR 1EB9
ENCODING 7865
SWIDTH 570 0
DWIDTH 19 0
BBX 16 25 2 -7
BITMAP
07E0
1FF8
3C7C
701C
700E
E00E
E006
E007
FFFF
FFFF
E000
E000
E000
700E
701E
3C3C
1FF8
0FE0
0000
0000
0000
0000
0380
03C0
03C0
ENDCHAR
STARTCHAR 1EBA
ENCODING 7866
SWIDTH 540 0
DWIDTH 18 0
BBX 15 32 2 0
BITMAP
03C0
07E0
0C60
0060
00E0
01C0
0000
0000
0000
FFFE
FFFE
E000
E000
E000
E000
E000
E000
E000
E000
FFFC
FFFC
E000
E000
E000
E000
E000
E000
E000
E000
FFFE
FFFE
FFFE
ENDCHAR
STARTCHAR 1EBB
ENCODING 7867
SWIDTH 570 0
DWIDTH 19 0
BBX 16 26 2 0
BITMAP
03C0
07E0
0E60
0060
00E0
01C0
0000
0000
07E0
1FF8
3C7C
701C
700E
E00E
E006
E007
FFFF
FFFF
E000
E000
E000
700E
701E
3C3C
1FF8
0FE0
ENDCHAR
STARTCHAR 1EBC
ENCODING 7868
SWIDTH 540 0
DWIDTH 18 0
BBX 15 30 2 0
BITMAP
0F10
1FB0
19F0
1840
0000
0000
0000
FFFE
FFFE
E000
E000
E000
E000
E000
E000
E000
E000
FFFC
FFFC
E000
E000
E000
E000
E000
E000
E000
E000
FFFE
FFFE
FFFE
ENDCHAR
STARTCHAR 1EBD
ENCODING 7869
SWIDTH 570 0
DWIDTH 19 0
BBX 16 24 2 0
BITMAP
0F18
1FF0
18F0
0000
0000
0000
07E0
1FF8
3C7C
701C
700E
E00E
E006
E007
FFFF
FFFF
E000
E000
E000
700E
701E
3C3C
1FF8
0FE0
ENDCHAR
STARTCHAR 1EBE
ENCODING 7870
SWIDTH 540 0
DWIDTH 18 0
BBX 18 36 2 0
BITMAP
0001C0
000380
000380
000700
000600
000E00
03C000
07E000
0E7000
1C3000
000800
000000
000000
FFFE00
FFFE00
E00000
E00000
E00000
E00000
E00000
E00000
E00000
E00000
FFFC00
FFFC00
E00000
E00000
E00000
E00000
E00000
E00000
E00000
E00000
FFFE00
FFFE00
FFFE00
ENDCHAR
STARTCHAR 1EBF
ENCODING 7871
SWIDTH 570 0
DWIDTH 19 0
BBX 18 30 2 0
BITMAP
0001C0
000380
000380
000700
000600
018E00
03C000
07E000
0E7000
1C3800
000000
000000
07E000
1FF800
3C7C00
701C00
700E00
E00E00
E00600
E00700
FFFF00
FFFF00
E00000
E00000
E00000
700E00
701E00
3C3C00
1FF800
0FE000
ENDCHAR
STARTCHAR 1EC0
ENCODING 7872
SWIDTH 540 0
DWIDTH 18 0
BBX 15 36 2 0
BITMAP
00E0
00E0
0070
0038
0018
001C
03C0
07E0
0E70
1C30
0008
0000
0000
FFFE
FFFE
E000
E000
E000
E000
E000
E000
E000
E000
FFFC
FFFC
E000
E000
E000
E000
E000
E000
E000
E000
FFFE
FFFE
FFFE
ENDCHAR
STARTCHAR 1EC1
ENCODING 7873
SWIDTH 570 0
DWIDTH 19 0
BBX 16 30 2 0
BITMAP
00E0
0070
0030
0038
001C
018C
03C0
07E0
0E70
1C38
0000
0000
07E0
1FF8
3C7C
701C
700E
E00E
E006
E007
FFFF
FFFF
E000
E000
E000
700E
701E
3C3C
1FF8
0FE0
ENDCHAR
STARTCHAR 1EC2
ENCODING 7874
SWIDTH 540 0
DWIDTH 18 0
BBX 16 36 2 0
BITMAP
001E
003F
0073
0003
0007
000E
03C0
07E0
0E70
1C30
0008
0000
0000
FFFE
FFFE
E000
E000
E000
E000
E000
E000
E000
E000
FFFC
FFFC
E000
E000
E000
E000
E000
E000
E000
E000
FFFE
FFFE
FFFE
ENDCHAR
STARTCHAR 1EC3
ENCODING 7875
SWIDTH 570 0
DWIDTH 19 0
BBX 17 30 2 0
BITMAP
001F00
003F00
007380
000300
000700
018E00
03C000
07E000
0E7000
1C3800
000000
000000
07E000
1FF800
3C7C00
701C00
700E00
E00E00
E00600
E00700
FFFF00
FFFF00
E00000
E00000
E00000
700E00
701E00
3C3C00
1FF800
0FE000
ENDCHAR
STARTCHAR 1EC4
ENCODING 7876
SWIDTH 540 0
DWIDTH 18 0
BBX 15 35 2 0
BITMAP
0F10
1FF0
18F0
0000
0000
03C0
07E0
0E70
1C30
0008
0000
0000
FFFE
FFFE
E000
E000
E000
E000
E000
E000
E000
E000
FFFC
FFFC
E000
E000
E000
E000
E000
E000
E000
E000
FFFE
FFFE
FFFE
ENDCHAR
STARTCHAR 1EC5
ENCODING 7877
SWIDTH 570 0
DWIDTH 19 0
BBX 16 30 2 0
BITMAP
0418
0F98
1FF0
18F0
0000
0180
03C0
07E0
0E70
1C38
0000
0000
07E0
1FF8
3C7C
701C
700E
E00E
E006
E007
FFFF
FFFF
E000
E000
E000
700E
701E
3C3C
1FF8
0FE0
ENDCHAR
STARTCHAR 1EC6
ENCODING 7878
SWIDTH 540 0
DWIDTH 18 0
BBX 15 37 2 -7
BITMAP
03C0
07E0
0E70
1C30
0008
0000
0000
FFFE
FFFE
E000
E000
E000
E000
E000
E000
E000
E000
FFFC
FFFC
E000
E000
E000
E000
E000
E000
E000
E000
FFFE
FFFE
FFFE
0000
0000
0000
0000
0380
03C0
0380
ENDCHAR
STARTCHAR 1EC7
ENCODING 7879
SWIDTH 570 0
DWIDTH 19 0
BBX 16 32 2 -7
BITMAP
0180
03C0
07E0
0E70
1C38
0000
0000
07E0
1FF8
3C7C
701C
700E
E00E
E006
E007
FFFF
FFFF
E000
E000
E000
700E
701E
3C3C
1FF8
0FE0
0000
0000
0000
0000
0380
03C0
03C0
ENDCHAR
STARTCHAR 1EC8
ENCODING 7880
SWIDTH 240 0
DWIDTH 8 0
BBX 7 32 1 0
BITMAP
78
FC
CE
0E
0C
18
20
00
00
38
38
38
38
38
38
38
38
38
38
38
38
38
38
38
38
38
38
38
38
38
38
38
ENDCHAR
STARTCHAR 1EC9
ENCODING 7881
SWIDTH 240 0
DWIDTH 8 0
BBX 7 26 1 0
BITMAP
7C
FC
C6
06
0C
38
00
00
38
38
38
38
38
38
38
38
38
38
38
38
38
38
38
38
38
38
ENDCHAR
STARTCHAR 1ECA
ENCODING 7882
SWIDTH 240 0
DWIDTH 8 0
BBX 4 30 2 -7
BITMAP
70
70
70
70
70
70
70
70
70
70
70
70
70
70
70
70
70
70
70
70
70
70
70
00
00
00
00
70
F0
F0
ENDCHAR
STARTCHAR 1ECB
ENCODING 7883
SWIDTH 240 0
DWIDTH 8 0
BBX 4 31 2 -6
BITMAP
F0
F0
70
00
00
00
70
70
70
70
70
70
70
70
70
70
70
70
70
70
70
70
70
70
00
00
00
00
70
F0
70
ENDCHAR
STARTCHAR 1ECC
ENCODING 7884
SWIDTH 720 0
DWIDTH 24 0
BBX 21 31 2 -7
BITMAP
01F800
07FF00
0FFF80
1E07C0
3C01E0
7800E0
7000F0
F00070
E00070
E00078
E00038
E00038
E00038
E00038
E00038
E00070
E00070
700070
7000E0
7801E0
3C03C0
1FDF80
0FFF00
03FC00
000000
000000
000000
000000
007000
00F000
007000
ENDCHAR
STARTCHAR 1ECD
ENCODING 7885
SWIDTH 570 0
DWIDTH 19 0
BBX 16 25 2 -7
BITMAP
07E0
1FF8
3EFC
781E
700E
E007
E007
E007
E007
E007
E007
E007
E007
700E
781E
3E3C
1FF8
0FE0
0000
0000
0000
0000
0380
03C0
03C0
ENDCHAR
STARTCHAR 1ECE
ENCODING 7886
SWIDTH 720 0
DWIDTH 24 0
BBX 21 32 2 0
BITMAP
00F000
01F800
018C00
000C00
001800
003000
000000
000000
01F800
07FF00
0FFF80
1E07C0
3C01E0
7800E0
7000F0
F00070
E00070
E00078
E00038
E00038
E00038
E00038
E00038
E00070
E00070
700070
7000E0
7801E0
3C03C0
1FDF80
0FFF00
03FC00
ENDCHAR
STARTCHAR 1ECF
ENCODING 7887
SWIDTH 570 0
DWIDTH 19 0
BBX 16 26 2 0
BITMAP
03C0
07E0
0E60
0060
00E0
01C0
0000
0000
07E0
1FF8
3EFC
781E
700E
E007
E007
E007
E007
E007
E007
E007
E007
700E
781E
3E3C
1FF8
0FE0
ENDCHAR
STARTCHAR 1ED0
ENCODING 7888
SWIDTH 720 0
DWIDTH 24 0
BBX 21 36 2 0
BITMAP
000078
000070
0000E0
0000E0
0001C0
000180
00F000
01F800
039C00
030E00
040000
000000
01F800
07FF00
0FFF80
1E07C0
3C01E0
7800E0
7000F0
F00070
E00070
E00078
E00038
E00038
E00038
E00038
E00038
E00070
E00070
700070
7000E0
7801E0
3C03C0
1FDF80
0FFF00
03FC00
ENDCHAR
STARTCHAR 1ED1
ENCODING 7889
SWIDTH 570 0
DWIDTH 19 0
BBX 18 30 2 0
BITMAP
0001C0
000380
000380
000700
000600
018E00
03C000
07E000
0E7000
1C3800
000000
000000
07E000
1FF800
3EFC00
781E00
700E00
E00700
E00700
E00700
E00700
E00700
E00700
E00700
E00700
700E00
781E00
3E3C00
1FF800
0FE000
ENDCHAR
STARTCHAR 1ED2
ENCODING 7890
SWIDTH 720 0
DWIDTH 24 0
BBX 21 36 2 0
BITMAP
003800
001C00
000E00
000E00
000700
000300
00F000
01F800
039C00
070E00
000000
000000
01F800
07FF00
0FFF80
1E07C0
3C01E0
7800E0
7000F0
F00070
E00070
E00078
E00038
E00038
E00038
E00038
E00038
E00070
E00070
700070
7000E0
7801E0
3C03C0
1FDF80
0FFF00
03FC00
ENDCHAR
STARTCHAR 1ED3
ENCODING 7891
SWIDTH 570 0
DWIDTH 19 0
BBX 16 30 2 0
BITMAP
00E0
0070
0030
0038
0018
018C
03C0
07E0
0E70
1C38
0000
0000
07E0
1FF8
3EFC
781E
700E
E007
E007
E007
E007
E007
E007
E007
E007
700E
781E
3E3C
1FF8
0FE0
ENDCHAR
STARTCHAR 1ED4
ENCODING 7892
SWIDTH 720 0
DWIDTH 24 0
BBX 21 36 2 0
BITMAP
0007C0
000FE0
000C60
000060
0000C0
000180
00F000
01F800
039C00
030E00
040000
000000
01F800
07FF00
0FFF80
1E07C0
3C01E0
7800E0
7000F0
F00070
E00070
E00078
E00038
E00038
E00038
E00038
E00038
E00070
E00070
700070
7000E0
7801E0
3C03C0
1FDF80
0FFF00
03FC00
ENDCHAR
STARTCHAR 1ED5
ENCODING 7893
SWIDTH 570 0
DWIDTH 19 0
BBX 17 30 2 0
BITMAP
001F00
003F00
007380
000300
000700
018E00
03C000
07E000
0E7000
1C3800
000000
000000
07E000
1FF800
3EFC00
781E00
700E00
E00700
E00700
E00700
E00700
E00700
E00700
E00700
E00700
700E00
781E00
3E3C00
1FF800
0FE000
ENDCHAR
STARTCHAR 1ED6
ENCODING 7894
SWIDTH 720 0
DWIDTH 24 0
BBX 21 35 2 0
BITMAP
03E600
03FE00
023C00
000000
000000
00F000
01F800
039C00
030E00
040000
000000
01F800
07FF00
0FFF80
1E07C0
3C01E0
7800E0
7000F0
F00070
E00070
E00078
E00038
E00038
E00038
E00038
E00038
E00070
E00070
700070
7000E0
7801E0
3C03C0
1FDF80
0FFF00
03FC00
ENDCHAR
STARTCHAR 1ED7
ENCODING 7895
SWIDTH 570 0
DWIDTH 19 0
BBX 16 30 2 0
BITMAP
0418
0F98
1FF0
18F0
0000
0180
03C0
07E0
0E70
1C38
0000
0000
07E0
1FF8
3EFC
781E
700E
E007
E007
E007
E007
E007
E007
E007
E007
700E
781E
3E3C
1FF8
0FE0
ENDCHAR
STARTCHAR 1ED8
ENCODING 7896
SWIDTH 720 0
DWIDTH 24 0
BBX 21 37 2 -7
BITMAP
00F000
01F800
039C00
030E00
040000
000000
01F800
07FF00
0FFF80
1E07C0
3C01E0
7800E0
7000F0
F00070
E00070
E00078
E00038
E00038
E00038
E00038
E00038
E00070
E00070
700070
7000E0
7801E0
3C03C0
1FDF80
0FFF00
03FC00
000000
000000
000000
000000
007000
00F000
007000
ENDCHAR
STARTCHAR 1ED9
ENCODING 7897
SWIDTH 570 0
DWIDTH 19 0
BBX 16 32 2 -7
BITMAP
0180
03C0
07E0
0E70
1C38
0000
0000
07E0
1FF8
3EFC
781E
700E
E007
E007
E007
E007
E007
E007
E007
E007
700E
781E
3E3C
1FF8
0FE0
0000
0000
0000
0000
0380
03C0
03C0
ENDCHAR
STARTCHAR 1EDA
ENCODING 7898
SWIDTH 720 0
DWIDTH 24 0
BBX 21 32 2 0
BITMAP
000E00
000E00
001C00
001800
003800
003000
000060
000060
01F9E0
07FFC0
0FFF80
1E07C0
3C01E0
7800E0
7000F0
F00070
E00070
E00078
E00038
E00038
E00038
E00038
E00038
E00070
E00070
700070
7000E0
7801E0
3C03C0
1FDF80
0FFF00
03FC00
ENDCHAR
STARTCHAR 1EDB
ENCODING 7899
SWIDTH 600 0
DWIDTH 20 0
BBX 16 26 2 0
BITMAP
0038
0070
0070
00E0
00C0
01C3
0003
0003
07FF
1FFE
3EFC
781E
700E
E007
E007
E007
E007
E007
E007
E007
E007
700E
781E
3E3C
1FF8
0FE0
ENDCHAR
STARTCHAR 1EDC
ENCODING 7900
SWIDTH 720 0
DWIDTH 24 0
BBX 21 32 2 0
BITMAP
070000
038000
038000
01C000
00C000
00E000
000060
000060
01F9E0
07FFC0
0FFF80
1E07C0
3C01E0
7800E0
7000F0
F00070
E00070
E00078
E00038
E00038
E00038
E00038
E00038
E00070
E00070
700070
7000E0
7801E0
3C03C0
1FDF80
0FFF00
03FC00
ENDCHAR
STARTCHAR 1EDD
ENCODING 7901
SWIDTH 600 0
DWIDTH 20 0
BBX 16 26 2 0
BITMAP
1C00
0C00
0E00
0700
0300
0383
0003
0003
07FF
1FFE
3EFC
781E
700E
E007
E007
E007
E007
E007
E007
E007
E007
700E
781E
3E3C
1FF8
0FE0
ENDCHAR
STARTCHAR 1EDE
ENCODING 7902
SWIDTH 720 0
DWIDTH 24 0
BBX 21 32 2 0
BITMAP
00F000
01F800
018C00
000C00
001800
003000
000060
000060
01F9E0
07FFC0
0FFF80
1E07C0
3C01E0
7800E0
7000F0
F00070
E00070
E00078
E00038
E00038
E00038
E00038
E00038
E00070
E00070
700070
7000E0
7801E0
3C03C0
1FDF80
0FFF00
03FC00
ENDCHAR
STARTCHAR 1EDF
ENCODING 7903
SWIDTH 600 0
DWIDTH 20 0
BBX 16 26 2 0
BITMAP
03C0
07E0
0E60
0060
00E0
01C3
0003
0003
07FF
1FFE
3EFC
781E
700E
E007
E007
E007
E007
E007
E007
E007
E007
700E
781E
3E3C
1FF8
0FE0
ENDCHAR
STARTCHAR 1EE0
ENCODING 7904
SWIDTH 720 0
DWIDTH 24 0
BBX 21 30 2 0
BITMAP
01C600
03F600
023C00
060000
000060
000060
01F9E0
07FFC0
0FFF80
1E07C0
3C01E0
7800E0
7000F0
F00070
E00070
E00078
E00038
E00038
E00038
E00038
E00038
E00070
E00070
700070
7000E0
7801E0
3C03C0
1FDF80
0FFF00
03FC00
ENDCHAR
STARTCHAR 1EE1
ENCODING 7905
SWIDTH 600 0
DWIDTH 20 0
BBX 16 24 2 0
BITMAP
0F18
1FF0
18F0
0003
0003
0003
07FF
1FFE
3EFC
781E
700E
E007
E007
E007
E007
E007
E007
E007
E007
700E
781E
3E3C
1FF8
0FE0
ENDCHAR
STARTCHAR 1EE2
ENCODING 7906
SWIDTH 720 0
DWIDTH 24 0
BBX 21 33 2 -7
BITMAP
000060
000060
01F9E0
07FFC0
0FFF80
1E07C0
3C01E0
7800E0
7000F0
F00070
E00070
E00078
E00038
E00038
E00038
E00038
E00038
E00070
E00070
700070
7000E0
7801E0
3C03C0
1FDF80
0FFF00
03FC00
000000
000000
000000
000000
007000
00F000
007000
ENDCHAR
STARTCHAR 1EE3
ENCODING 7907
SWIDTH 600 0
DWIDTH 20 0
BBX 16 28 2 -7
BITMAP
0003
0003
0003
07FF
1FFE
3EFC
781E
700E
E007
E007
E007
E007
E007
E007
E007
E007
700E
781E
3E3C
1FF8
0FE0
0000
0000
0000
0000
0380
03C0
03C0
ENDCHAR
STARTCHAR 1EE4
ENCODING 7908
SWIDTH 660 0
DWIDTH 22 0
BBX 19 30 2 -7
BITMAP
E000E0
E000E0
E000E0
E000E0
E000E0
E000E0
E000E0
E000E0
E000E0
E000E0
E000E0
E000E0
E000E0
E000E0
E000E0
E001C0
7001C0
7001C0
780380
3C0780
1FBF00
0FFE00
07FC00
000000
000000
000000
000000
00E000
00E000
00E000
ENDCHAR
STARTCHAR 1EE5
ENCODING 7909
SWIDTH 600 0
DWIDTH 20 0
BBX 16 25 2 -7
BITMAP
E007
E007
E007
E007
E007
E007
E007
E007
E007
E007
E007
6007
7007
700F
781F
3E77
3FE7
0FC7
0000
0000
0000
0000
0380
03C0
0380
ENDCHAR
STARTCHAR 1EE6
ENCODING 7910
SWIDTH 660 0
DWIDTH 22 0
BBX 19 32 2 0
BITMAP
00E000
03F800
031800
001800
003000
006000
000000
000000
000000
E000E0
E000E0
E000E0
E000E0
E000E0
E000E0
E000E0
E000E0
E000E0
E000E0
E000E0
E000E0
E000E0
E000E0
E000E0
E001C0
7001C0
7001C0
780380
3C0780
1FBF00
0FFE00
07FC00
ENDCHAR
STARTCHAR 1EE7
ENCODING 7911
SWIDTH 600 0
DWIDTH 20 0
BBX 16 26 2 0
BITMAP
07C0
0FE0
0C60
0060
00C0
0180
0000
0000
E007
E007
E007
E007
E007
E007
E007
E007
E007
E007
E007
6007
7007
700F
781F
3E77
3FE7
0FC7
ENDCHAR
STARTCHAR 1EE8
ENCODING 7912
SWIDTH 660 0
DWIDTH 22 0
BBX 22 32 2 0
BITMAP
000E00
001C00
003800
003800
007000
006000
00000C
00000C
00001C
E000F8
E000E0
E000E0
E000E0
E000E0
E000E0
E000E0
E000E0
E000E0
E000E0
E000E0
E000E0
E000E0
E000E0
E000E0
E001C0
7001C0
7001C0
780380
3C0780
1FBF00
0FFE00
07FC00
ENDCHAR
STARTCHAR 1EE9
ENCODING 7913
SWIDTH 600 0
DWIDTH 20 0
BBX 19 26 2 0
BITMAP
003800
007000
006000
00E000
01C000
018060
000060
000060
E007E0
E007C0
E00700
E00700
E00700
E00700
E00700
E00700
E00700
E00700
E00700
600700
700700
700F00
781F00
3E7700
3FE700
0FC700
ENDCHAR
STARTCHAR 1EEA
ENCODING 7914
SWIDTH 660 0
DWIDTH 22 0
BBX 22 32 2 0
BITMAP
0E0000
070000
030000
038000
01C000
00C000
00000C
00000C
00001C
E000F8
E000E0
E000E0
E000E0
E000E0
E000E0
E000E0
E000E0
E000E0
E000E0
E000E0
E000E0
E000E0
E000E0
E000E0
E001C0
7001C0
7001C0
780380
3C0780
1FBF00
0FFE00
07FC00
ENDCHAR
STARTCHAR 1EEB
ENCODING 7915
SWIDTH 600 0
DWIDTH 20 0
BBX 19 26 2 0
BITMAP
1C0000
1C0000
0E0000
060000
070000
030060
000060
000060
E007E0
E007C0
E00700
E00700
E00700
E00700
E00700
E00700
E00700
E00700
E00700
600700
700700
700F00
781F00
3E7700
3FE700
0FC700
ENDCHAR
STARTCHAR 1EEC
ENCODING 7916
SWIDTH 660 0
DWIDTH 22 0
BBX 22 32 2 0
BITMAP
00E000
03F800
031800
001800
003000
006000
00000C
00000C
00001C
E000F8
E000E0
E000E0
E000E0
E000E0
E000E0
E000E0
E000E0
E000E0
E000E0
E000E0
E000E0
E000E0
E000E0
E000E0
E001C0
7001C0
7001C0
780380
3C0780
1FBF00
0FFE00
07FC00
ENDCHAR
STARTCHAR 1EED
ENCODING 7917
SWIDTH 600 0
DWIDTH 20 0
BBX 19 26 2 0
BITMAP
07C000
0FE000
0C6000
006000
00C000
018060
000060
000060
E007E0
E007C0
E00700
E00700
E00700
E00700
E00700
E00700
E00700
E00700
E00700
600700
700700
700F00
781F00
3E7700
3FE700
0FC700
ENDCHAR
STARTCHAR 1EEE
ENCODING 7918
SWIDTH 660 0
DWIDTH 22 0
BBX 22 30 2 0
BITMAP
038C00
07EC00
067C00
041000
00000C
00000C
00001C
E000F8
E000E0
E000E0
E000E0
E000E0
E000E0
E000E0
E000E0
E000E0
E000E0
E000E0
E000E0
E000E0
E000E0
E000E0
E001C0
7001C0
7001C0
780380
3C0780
1FBF00
0FFE00
07FC00
ENDCHAR
STARTCHAR 1EEF
ENCODING 7919
SWIDTH 600 0
DWIDTH 20 0
BBX 19 24 2 0
BITMAP
0F1800
0FF800
18F000
000060
000060
000060
E007E0
E007C0
E00700
E00700
E00700
E00700
E00700
E00700
E00700
E00700
E00700
600700
700700
700F00
781F00
3E7700
3FE700
0FC700
ENDCHAR
STARTCHAR 1EF0
ENCODING 7920
SWIDTH 660 0
DWIDTH 22 0
BBX 22 33 2 -7
BITMAP
00000C
00000C
00001C
E000F8
E000E0
E000E0
E000E0
E000E0
E000E0
E000E0
E000E0
E000E0
E000E0
E000E0
E000E0
E000E0
E000E0
E000E0
E001C0
7001C0
7001C0
780380
3C0780
1FBF00
0FFE00
07FC00
000000
000000
000000
000000
00E000
00E000
00E000
ENDCHAR
STARTCHAR 1EF1
ENCODING 7921
SWIDTH 600 0
DWIDTH 20 0
BBX 19 28 2 -7
BITMAP
000060
000060
000060
E007E0
E007C0
E00700
E00700
E00700
E00700
E00700
E00700
E00700
E00700
E00700
600700
700700
700F00
781F00
3E7700
3FE700
0FC700
000000
000000
000000
000000
038000
03C000
038000
ENDCHAR
STARTCHAR 1EF2
ENCODING 7922
SWIDTH 600 0
DWIDTH 20 0
BBX 17 32 2 0
BITMAP
1C0000
0E0000
0E0000
070000
030000
038000
000000
000000
000000
E00380
E00700
700700
700E00
380E00
381C00
1C1C00
1C3800
0E3800
0E7000
077000
07E000
03E000
03C000
01C000
01C000
01C000
01C000
01C000
01C000
01C000
01C000
01C000
ENDCHAR
STARTCHAR 1EF3
ENCODING 7923
SWIDTH 510 0
DWIDTH 17 0
BBX 16 33 1 -7
BITMAP
1C00
0E00
0E00
0700
0300
0380
0000
0000
E007
E007
700E
700E
300E
381C
381C
1C38
1C38
1C30
0E70
0E70
0660
07E0
07C0
03C0
03C0
0380
0380
0700
0700
0F00
7E00
7C00
7000
ENDCHAR
STARTCHAR 1EF4
ENCODING 7924
SWIDTH 600 0
DWIDTH 20 0
BBX 17 30 2 -7
BITMAP
E00380
E00700
700700
700E00
380E00
381C00
1C1C00
1C3800
0E3800
0E7000
077000
07E000
03E000
03C000
01C000
01C000
01C000
01C000
01C000
01C000
01C000
01C000
01C000
000000
000000
000000
000000
01C000
03C000
01C000
ENDCHAR
STARTCHAR 1EF5
ENCODING 7925
SWIDTH 510 0
DWIDTH 17 0
BBX 16 25 1 -7
BITMAP
E007
E007
700E
700E
300E
381C
381C
1C38
1C38
1C30
0E70
0E70
0660
07E0
07C0
03C0
03C0
0380
0380
0700
0700
0F00
7E1C
7C1E
701C
ENDCHAR
STARTCHAR 1EF6
ENCODING 7926
SWIDTH 600 0
DWIDTH 20 0
BBX 17 32 2 0
BITMAP
03C000
07E000
067000
003000
006000
00C000
010000
000000
000000
E00380
E00700
700700
700E00
380E00
381C00
1C1C00
1C3800
0E3800
0E7000
077000
07E000
03E000
03C000
01C000
01C000
01C000
01C000
01C000
01C000
01C000
01C000
01C000
ENDCHAR
STARTCHAR 1EF7
ENCODING 7927
SWIDTH 510 0
DWIDTH 17 0
BBX 16 33 1 -7
BITMAP
03C0
07E0
0E60
0060
00E0
01C0
0000
0000
E007
E007
700E
700E
300E
381C
381C
1C38
1C38
1C30
0E70
0E70
0660
07E0
07C0
03C0
03C0
0380
0380
0700
0700
0F00
7E00
7C00
7000
ENDCHAR
STARTCHAR 1EF8
ENCODING 7928
SWIDTH 600 0
DWIDTH 20 0
BBX 17 30 2 0
BITMAP
0F1800
0FD800
18F000
182000
000000
000000
000000
E00380
E00700
700700
700E00
380E00
381C00
1C1C00
1C3800
0E3800
0E7000
077000
07E000
03E000
03C000
01C000
01C000
01C000
01C000
01C000
01C000
01C000
01C000
01C000
ENDCHAR
STARTCHAR 1EF9
ENCODING 7929
SWIDTH 510 0
DWIDTH 17 0
BBX 16 31 1 -7
BITMAP
0F18
1FF0
18F0
0000
0000
0000
E007
E007
700E
700E
300E
381C
381C
1C38
1C38
1C30
0E70
0E70
0660
07E0
07C0
03C0
03C0
0380
0380
0700
0700
0F00
7E00
7C00
7000
ENDCHAR
STARTCHAR 2013
ENCODING 8211
SWIDTH 630 0
DWIDTH 21 0
BBX 14 3 4 9
BITMAP
FFFC
FFFC
FFFC
ENDCHAR
STARTCHAR 2014
ENCODING 8212
SWIDTH 750 0
DWIDTH 25 0
BBX 18 3 4 9
BITMAP
FFFFC0
FFFFC0
FFFFC0
ENDCHAR
STARTCHAR 2018
ENCODING 8216
SWIDTH 270 0
DWIDTH 9 0
BBX 4 8 3 17
BITMAP
20
40
C0
80
C0
F0
F0
F0
ENDCHAR
STARTCHAR 2019
ENCODING 8217
SWIDTH 240 0
DWIDTH 8 0
BBX 4 8 3 15
BITMAP
60
F0
F0
70
10
10
30
60
ENDCHAR
STARTCHAR 201A
ENCODING 8218
SWIDTH 270 0
DWIDTH 9 0
BBX 5 8 2 -5
BITMAP
78
F8
78
18
18
18
30
60
ENDCHAR
STARTCHAR 201C
ENCODING 8220
SWIDTH 480 0
DWIDTH 16 0
BBX 12 8 3 17
BITMAP
2060
40C0
C080
8180
C180
F1E0
F1F0
F0E0
ENDCHAR
STARTCHAR 201D
ENCODING 8221
SWIDTH 510 0
DWIDTH 17 0
BBX 11 8 3 16
BITMAP
F1E0
F1E0
F1E0
3020
3020
3020
6060
C0C0
ENDCHAR
STARTCHAR 201E
ENCODING 8222
SWIDTH 510 0
DWIDTH 17 0
BBX 11 8 3 -5
BITMAP
E1E0
F1E0
F1E0
3060
3020
3060
6040
C080
ENDCHAR
STARTCHAR 2020
ENCODING 8224
SWIDTH 570 0
DWIDTH 19 0
BBX 13 31 3 -8
BITMAP
0700
0700
0700
0700
0700
FFF8
FFF8
FFF8
0700
0700
0700
0700
0700
0700
0700
0700
0700
0700
0700
0700
0700
0700
0700
0700
0700
0700
0700
0700
0700
0700
0700
ENDCHAR
STARTCHAR 2021
ENCODING 8225
SWIDTH 570 0
DWIDTH 19 0
BBX 13 31 3 -8
BITMAP
0700
0700
0700
0700
0700
FFF8
FFF8
FFF8
0700
0700
0700
0700
0700
0700
0700
0700
0700
0700
0700
0700
0700
0700
FFF8
FFF8
FFF8
0700
0700
0700
0700
0700
0700
ENDCHAR
STARTCHAR 2022
ENCODING 8226
SWIDTH 390 0
DWIDTH 13 0
BBX 7 7 2 9
BITMAP
38
7C
FE
FE
FE
7C
38
ENDCHAR
STARTCHAR 2026
ENCODING 8230
SWIDTH 780 0
DWIDTH 26 0
BBX 20 4 3 0
BITMAP
406020
E0F070
E0F070
E0E070
ENDCHAR
STARTCHAR 2030
ENCODING 8240
SWIDTH 1170 0
DWIDTH 39 0
BBX 38 24 1 0
BITMAP
0800000000
7F00700000
6300600000
E180E00000
C180C00000
C181C00000
C181800000
6383800000
7F07000000
3E07000000
000E000000
000C000000
001C000000
0018000000
0038000000
00303F03F0
00707387B8
0060618618
00E0618618
00C061861C
01C0618618
0180618618
0380738738
03003F03F0
ENDCHAR
STARTCHAR 2039
ENCODING 8249
SWIDTH 360 0
DWIDTH 12 0
BBX 10 14 1 4
BITMAP
01C0
0380
0700
0E00
1C00
3800
7000
E000
7000
3800
1C00
0E00
0700
0380
ENDCHAR
STARTCHAR 203A
ENCODING 8250
SWIDTH 360 0
DWIDTH 12 0
BBX 10 14 1 4
BITMAP
E000
7000
3800
1C00
0E00
0700
0380
01C0
0380
0700
0E00
1C00
3800
7000
ENDCHAR
STARTCHAR 2044
ENCODING 8260
SWIDTH 450 0
DWIDTH 15 0
BBX 16 23 0 0
BITMAP
0007
000E
000C
001C
0038
0038
0070
0060
00E0
01C0
01C0
0380
0300
0700
0E00
0E00
1C00
1800
3800
3000
7000
E000
C000
ENDCHAR
STARTCHAR 2070
ENCODING 8304
SWIDTH 330 0
DWIDTH 11 0
BBX 9 13 1 12
BITMAP
3E00
7700
6380
C180
C180
C180
C180
C180
C180
E180
6300
3E00
0800
ENDCHAR
STARTCHAR 2074
ENCODING 8308
SWIDTH 330 0
DWIDTH 11 0
BBX 9 12 1 13
BITMAP
0E00
0E00
1A00
3200
3200
6200
4200
C200
FF80
0200
0200
0200
ENDCHAR
STARTCHAR 2075
ENCODING 8309
SWIDTH 300 0
DWIDTH 10 0
BBX 9 12 1 13
BITMAP
FF00
C000
C000
C000
FE00
E700
C300
0180
0180
C300
7F00
3E00
ENDCHAR
STARTCHAR 2076
ENCODING 8310
SWIDTH 300 0
DWIDTH 10 0
BBX 8 12 1 13
BITMAP
18
18
30
60
7C
FF
C3
C1
C1
C3
67
3E
ENDCHAR
STARTCHAR 2077
ENCODING 8311
SWIDTH 270 0
DWIDTH 9 0
BBX 8 12 1 13
BITMAP
FF
03
03
06
06
0C
0C
18
18
10
30
30
ENDCHAR
STARTCHAR 2078
ENCODING 8312
SWIDTH 300 0
DWIDTH 10 0
BBX 9 13 1 12
BITMAP
3E00
6300
C100
C180
6300
3E00
7700
C180
C180
C180
E300
7F00
0800
ENDCHAR
STARTCHAR 2079
ENCODING 8313
SWIDTH 300 0
DWIDTH 10 0
BBX 9 12 1 13
BITMAP
3E00
6700
C300
C180
C180
C300
7F00
3B00
0600
0C00
0C00
1800
ENDCHAR
STARTCHAR 2080
ENCODING 8320
SWIDTH 330 0
DWIDTH 11 0
BBX 9 13 1 -8
BITMAP
0800
3E00
6300
E380
C180
C180
C180
C180
C180
C180
6380
7300
3E00
ENDCHAR
STARTCHAR 2081
ENCODING 8321
SWIDTH 240 0
DWIDTH 8 0
BBX 7 12 1 -8
BITMAP
30
70
D0
90
10
10
10
10
10
10
10
FE
ENDCHAR
STARTCHAR 2082
ENCODING 8322
SWIDTH 300 0
DWIDTH 10 0
BBX 8 12 1 -8
BITMAP
7E
67
C3
C3
03
07
0E
1C
38
70
E0
FF
ENDCHAR
STARTCHAR 2083
ENCODING 8323
SWIDTH 300 0
DWIDTH 10 0
BBX 9 13 1 -8
BITMAP
0800
7E00
6300
C300
0100
0300
1E00
1F00
0300
0180
C300
F700
7E00
ENDCHAR
STARTCHAR 2084
ENCODING 8324
SWIDTH 330 0
DWIDTH 11 0
BBX 9 12 1 -8
BITMAP
0600
0E00
1A00
1200
3200
6200
4200
C200
FF80
0200
0200
0200
ENDCHAR
STARTCHAR 2085
ENCODING 8325
SWIDTH 300 0
DWIDTH 10 0
BBX 9 12 1 -8
BITMAP
FF00
FF00
C000
C000
DE00
F700
C300
0180
0180
C300
E700
7E00
ENDCHAR
STARTCHAR 2086
ENCODING 8326
SWIDTH 300 0
DWIDTH 10 0
BBX 8 12 1 -8
BITMAP
18
18
30
60
7C
FF
C3
C1
C1
C3
E3
7E
ENDCHAR
STARTCHAR 2087
ENCODING 8327
SWIDTH 270 0
DWIDTH 9 0
BBX 8 12 1 -8
BITMAP
FF
FF
03
06
06
0C
0C
08
18
18
30
30
ENDCHAR
STARTCHAR 2088
ENCODING 8328
SWIDTH 300 0
DWIDTH 10 0
BBX 9 13 1 -8
BITMAP
0800
7E00
6300
C100
C100
6300
3E00
6700
C180
C180
C180
E300
7F00
ENDCHAR
STARTCHAR 2089
ENCODING 8329
SWIDTH 300 0
DWIDTH 10 0
BBX 9 12 1 -8
BITMAP
3E00
6700
C300
C180
C180
C300
7F00
3B00
0600
0C00
0C00
1800
ENDCHAR
STARTCHAR 20AB
ENCODING 8363
SWIDTH 570 0
DWIDTH 19 0
BBX 18 27 1 0
BITMAP
000700
000700
007FC0
007FC0
000700
000700
0FE700
1FF700
3C3F00
780F00
700F00
E00700
E00700
E00700
E00700
E00700
700700
700F00
781F00
3FFF00
1FE700
038000
000000
000000
000000
3FFF80
3FFF80
ENDCHAR
STARTCHAR 20AC
ENCODING 8364
SWIDTH 690 0
DWIDTH 23 0
BBX 22 23 0 0
BITMAP
007F80
00FFC0
03F3E0
0380F0
070038
0F0038
0E001C
0E001C
FFF800
FFF800
1C0000
1C0000
1C0000
FFF800
FFF800
0E0000
0E001C
0F0038
070038
0380F0
03F3E0
01FFC0
007F80
ENDCHAR
STARTCHAR 2122
ENCODING 8482
SWIDTH 360 0
DWIDTH 12 0
BBX 11 5 1 18
BITMAP
F660
67E0
65A0
65A0
6420
ENDCHAR
STARTCHAR 215B
ENCODING 8539
SWIDTH 870 0
DWIDTH 29 0
BBX 28 23 1 0
BITMAP
38001C00
78003800
D8003800
98007000
18006000
1800E000
1801C000
1801C000
18038000
FE030000
FE070000
000E0780
000E0FE0
001C1C60
00181860
00380C60
00700FC0
00700FC0
00E01860
00C01830
01C01870
01801FE0
03800FC0
ENDCHAR
STARTCHAR 215C
ENCODING 8540
SWIDTH 840 0
DWIDTH 28 0
BBX 26 23 1 0
BITMAP
3F003800
73003800
63807000
03806000
0700E000
0E01C000
0701C000
01838000
C1830000
63070000
7F0E0000
1C0E0F00
001C1F80
001830C0
003830C0
007030C0
00701F80
00E01F80
00C030C0
01C030C0
018030C0
03803FC0
07001F80
ENDCHAR
STARTCHAR 215D
ENCODING 8541
SWIDTH 870 0
DWIDTH 29 0
BBX 28 23 1 0
BITMAP
7F001C00
40003800
40003000
4C007000
FF00E000
E300E000
0381C000
03818000
E3038000
7F070000
3E070000
000E0780
000C0FE0
001C1C60
00381860
00380C60
00700FC0
00600FC0
00E01860
00C01830
01C01860
03801FE0
03000FC0
ENDCHAR
STARTCHAR 215E
ENCODING 8542
SWIDTH 900 0
DWIDTH 30 0
BBX 28 23 1 0
BITMAP
FF001800
FF003800
03003000
06007000
0600E000
0C00C000
0C01C000
1C018000
18038000
18070000
30060000
000E03C0
000C0FE0
001C0C60
00380C60
00380C60
00700FE0
00600FE0
00E00C60
01C01830
01C01870
03800FE0
030007C0
ENDCHAR
STARTCHAR 2212
ENCODING 8722
SWIDTH 600 0
DWIDTH 20 0
BBX 14 3 3 9
BITMAP
FFFC
FFFC
FFFC
ENDCHAR
STARTCHAR 2215
ENCODING 8725
SWIDTH 510 0
DWIDTH 17 0
BBX 14 23 2 0
BITMAP
001C
0038
0038
0070
0070
00E0
00E0
01C0
01C0
0380
0380
0700
0700
0E00
0E00
1C00
1C00
1800
3800
3000
7000
6000
E000
ENDCHAR
STARTCHAR 2248
ENCODING 8776
SWIDTH 540 0
DWIDTH 18 0
BBX 13 11 3 5
BITMAP
3C18
7F70
E7F0
C1C0
0000
0000
0000
3C18
7E70
E7F0
C1C0
ENDCHAR
STARTCHAR 2260
ENCODING 8800
SWIDTH 720 0
DWIDTH 24 0
BBX 16 20 4 0
BITMAP
000E
001C
001C
0038
0030
FFFF
FFFF
00E0
01C0
0180
0380
0300
FFFF
FFFF
0E00
1C00
1800
3800
3000
7000
ENDCHAR
STARTCHAR 2264
ENCODING 8804
SWIDTH 600 0
DWIDTH 20 0
BBX 15 20 3 0
BITMAP
000C
003C
00FC
01F0
07C0
1F00
7C00
7000
3C00
1F00
07C0
01F0
007C
001C
0004
0000
0000
0000
FFFE
FFFE
ENDCHAR
STARTCHAR 2265
ENCODING 8805
SWIDTH 600 0
DWIDTH 20 0
BBX 15 20 3 0
BITMAP
6000
7800
7C00
1F00
07C0
01F0
007C
003C
00F8
01E0
07C0
1F00
7C00
7000
4000
0000
0000
0000
FFFE
FFFC
ENDCHAR
ENDFONT
